<mxfile host="app.diagrams.net" modified="2022-04-16T16:22:55.080Z" agent="5.0 (X11; Linux x86_64) AppleWebKit/537.36 (KHTML, like Gecko) Chrome/100.0.4896.127 Safari/537.36" etag="fHhnvIbFbBy8fYGuyisP" version="17.4.5" type="github">
  <diagram id="prtHgNgQTEPvFCAcTncT" name="Page-1">
    <mxGraphModel dx="948" dy="491" grid="1" gridSize="10" guides="1" tooltips="1" connect="1" arrows="1" fold="1" page="1" pageScale="1" pageWidth="5000" pageHeight="2581" math="0" shadow="0">
      <root>
        <mxCell id="0" />
        <mxCell id="1" parent="0" />
        <mxCell id="Fj1rsP363tf5vaqWqIAK-1" value="" style="rounded=0;whiteSpace=wrap;html=1;fontSize=13;movable=0;resizable=0;" parent="1" vertex="1">
          <mxGeometry x="760" width="3380" height="2580" as="geometry" />
        </mxCell>
        <mxCell id="BMSPjfVfwommTCz05lxM-120" style="edgeStyle=orthogonalEdgeStyle;rounded=0;orthogonalLoop=1;jettySize=auto;html=1;exitX=0.75;exitY=1;exitDx=0;exitDy=0;entryX=0.75;entryY=1;entryDx=0;entryDy=0;dashed=1;fontSize=13;fontColor=default;fillColor=#d5e8d4;strokeColor=#82b366;dashPattern=1 1;arcSize=12;" parent="1" source="BMSPjfVfwommTCz05lxM-77" target="BMSPjfVfwommTCz05lxM-29" edge="1">
          <mxGeometry relative="1" as="geometry">
            <Array as="points">
              <mxPoint x="1434.8000000000002" y="750" />
              <mxPoint x="2102.8" y="750" />
            </Array>
          </mxGeometry>
        </mxCell>
        <mxCell id="BMSPjfVfwommTCz05lxM-112" style="edgeStyle=orthogonalEdgeStyle;rounded=0;orthogonalLoop=1;jettySize=auto;html=1;exitX=0.75;exitY=1;exitDx=0;exitDy=0;entryX=0.25;entryY=1;entryDx=0;entryDy=0;fontSize=13;fontColor=default;fillColor=#d5e8d4;strokeColor=#82b366;dashed=1;arcSize=12;" parent="1" source="BMSPjfVfwommTCz05lxM-82" target="BMSPjfVfwommTCz05lxM-29" edge="1">
          <mxGeometry relative="1" as="geometry" />
        </mxCell>
        <mxCell id="BMSPjfVfwommTCz05lxM-14" value="&lt;b&gt;&lt;font style=&quot;font-size: 36px&quot;&gt;&lt;br&gt;&lt;/font&gt;&lt;/b&gt;" style="rounded=0;whiteSpace=wrap;html=1;arcSize=12;fillColor=none;" parent="1" vertex="1">
          <mxGeometry x="804.8" y="2891" width="3350" height="2030" as="geometry" />
        </mxCell>
        <mxCell id="BMSPjfVfwommTCz05lxM-26" style="edgeStyle=orthogonalEdgeStyle;rounded=0;orthogonalLoop=1;jettySize=auto;html=1;exitX=0.75;exitY=1;exitDx=0;exitDy=0;entryX=0.25;entryY=0;entryDx=0;entryDy=0;fontSize=26;fontColor=default;fillColor=#dae8fc;strokeColor=#6c8ebf;arcSize=12;" parent="1" source="BMSPjfVfwommTCz05lxM-15" target="BMSPjfVfwommTCz05lxM-23" edge="1">
          <mxGeometry relative="1" as="geometry" />
        </mxCell>
        <mxCell id="BMSPjfVfwommTCz05lxM-202" style="edgeStyle=orthogonalEdgeStyle;rounded=0;orthogonalLoop=1;jettySize=auto;html=1;exitX=1;exitY=0.75;exitDx=0;exitDy=0;entryX=0;entryY=0.75;entryDx=0;entryDy=0;fontSize=13;fontColor=default;strokeWidth=1;fillColor=#d5e8d4;strokeColor=#82b366;" parent="1" source="BMSPjfVfwommTCz05lxM-15" target="BMSPjfVfwommTCz05lxM-19" edge="1">
          <mxGeometry relative="1" as="geometry" />
        </mxCell>
        <mxCell id="BMSPjfVfwommTCz05lxM-15" value="&lt;font style=&quot;font-size: 26px&quot;&gt;Lord Beres&lt;/font&gt;" style="rounded=0;whiteSpace=wrap;html=1;fontSize=36;fillColor=#dae8fc;strokeColor=#6c8ebf;arcSize=12;" parent="1" vertex="1">
          <mxGeometry x="2312.8" y="410" width="160" height="50" as="geometry" />
        </mxCell>
        <mxCell id="BMSPjfVfwommTCz05lxM-25" style="edgeStyle=orthogonalEdgeStyle;rounded=0;orthogonalLoop=1;jettySize=auto;html=1;exitX=0.5;exitY=1;exitDx=0;exitDy=0;entryX=0.5;entryY=0;entryDx=0;entryDy=0;fontSize=26;fontColor=default;fillColor=#dae8fc;strokeColor=#6c8ebf;arcSize=12;" parent="1" source="BMSPjfVfwommTCz05lxM-19" target="BMSPjfVfwommTCz05lxM-23" edge="1">
          <mxGeometry relative="1" as="geometry" />
        </mxCell>
        <mxCell id="BMSPjfVfwommTCz05lxM-70" style="edgeStyle=orthogonalEdgeStyle;rounded=0;orthogonalLoop=1;jettySize=auto;html=1;exitX=0.75;exitY=1;exitDx=0;exitDy=0;entryX=0.25;entryY=0;entryDx=0;entryDy=0;fontSize=26;fontColor=default;fillColor=#dae8fc;strokeColor=#6c8ebf;dashed=1;arcSize=12;" parent="1" source="BMSPjfVfwommTCz05lxM-19" target="BMSPjfVfwommTCz05lxM-57" edge="1">
          <mxGeometry relative="1" as="geometry">
            <Array as="points">
              <mxPoint x="2619.8" y="460" />
              <mxPoint x="2619.8" y="490" />
              <mxPoint x="3544.8" y="490" />
            </Array>
          </mxGeometry>
        </mxCell>
        <mxCell id="BMSPjfVfwommTCz05lxM-201" style="edgeStyle=orthogonalEdgeStyle;rounded=0;orthogonalLoop=1;jettySize=auto;html=1;exitX=0;exitY=0.75;exitDx=0;exitDy=0;entryX=1;entryY=0.75;entryDx=0;entryDy=0;fontSize=13;fontColor=default;strokeWidth=1;fillColor=#d5e8d4;strokeColor=#82b366;" parent="1" source="BMSPjfVfwommTCz05lxM-19" target="BMSPjfVfwommTCz05lxM-15" edge="1">
          <mxGeometry relative="1" as="geometry" />
        </mxCell>
        <mxCell id="BMSPjfVfwommTCz05lxM-203" style="edgeStyle=orthogonalEdgeStyle;rounded=0;orthogonalLoop=1;jettySize=auto;html=1;exitX=1;exitY=0.75;exitDx=0;exitDy=0;entryX=0;entryY=0.75;entryDx=0;entryDy=0;fontSize=13;fontColor=default;strokeWidth=1;fillColor=#d5e8d4;strokeColor=#82b366;" parent="1" source="BMSPjfVfwommTCz05lxM-19" target="BMSPjfVfwommTCz05lxM-20" edge="1">
          <mxGeometry relative="1" as="geometry" />
        </mxCell>
        <mxCell id="BMSPjfVfwommTCz05lxM-217" style="edgeStyle=orthogonalEdgeStyle;rounded=0;orthogonalLoop=1;jettySize=auto;html=1;exitX=0.75;exitY=1;exitDx=0;exitDy=0;entryX=0;entryY=0.25;entryDx=0;entryDy=0;fontSize=13;fontColor=default;strokeWidth=1;fillColor=#d5e8d4;strokeColor=#82b366;" parent="1" source="BMSPjfVfwommTCz05lxM-19" target="BMSPjfVfwommTCz05lxM-213" edge="1">
          <mxGeometry relative="1" as="geometry">
            <Array as="points">
              <mxPoint x="2613" y="500" />
              <mxPoint x="3030" y="500" />
              <mxPoint x="3030" y="925" />
            </Array>
          </mxGeometry>
        </mxCell>
        <mxCell id="BMSPjfVfwommTCz05lxM-19" value="&lt;font style=&quot;font-size: 26px&quot;&gt;Lord Allem&lt;/font&gt;" style="rounded=0;whiteSpace=wrap;html=1;fontSize=36;fillColor=#dae8fc;strokeColor=#6c8ebf;arcSize=12;" parent="1" vertex="1">
          <mxGeometry x="2492.8" y="410" width="160" height="50" as="geometry" />
        </mxCell>
        <mxCell id="BMSPjfVfwommTCz05lxM-24" style="edgeStyle=orthogonalEdgeStyle;rounded=0;orthogonalLoop=1;jettySize=auto;html=1;exitX=0.25;exitY=1;exitDx=0;exitDy=0;entryX=0.75;entryY=0;entryDx=0;entryDy=0;fontSize=26;fontColor=default;fillColor=#dae8fc;strokeColor=#6c8ebf;arcSize=12;" parent="1" source="BMSPjfVfwommTCz05lxM-20" target="BMSPjfVfwommTCz05lxM-23" edge="1">
          <mxGeometry relative="1" as="geometry" />
        </mxCell>
        <mxCell id="BMSPjfVfwommTCz05lxM-69" style="edgeStyle=orthogonalEdgeStyle;rounded=0;orthogonalLoop=1;jettySize=auto;html=1;exitX=0.75;exitY=1;exitDx=0;exitDy=0;entryX=0.75;entryY=0;entryDx=0;entryDy=0;fontSize=26;fontColor=default;fillColor=#dae8fc;strokeColor=#6c8ebf;dashed=1;arcSize=12;" parent="1" source="BMSPjfVfwommTCz05lxM-20" target="BMSPjfVfwommTCz05lxM-58" edge="1">
          <mxGeometry relative="1" as="geometry">
            <Array as="points">
              <mxPoint x="2792.8" y="510" />
              <mxPoint x="3774.8" y="510" />
            </Array>
          </mxGeometry>
        </mxCell>
        <mxCell id="BMSPjfVfwommTCz05lxM-204" style="edgeStyle=orthogonalEdgeStyle;rounded=0;orthogonalLoop=1;jettySize=auto;html=1;exitX=0;exitY=0.75;exitDx=0;exitDy=0;entryX=1;entryY=0.75;entryDx=0;entryDy=0;fontSize=13;fontColor=default;strokeWidth=1;fillColor=#d5e8d4;strokeColor=#82b366;" parent="1" source="BMSPjfVfwommTCz05lxM-20" target="BMSPjfVfwommTCz05lxM-19" edge="1">
          <mxGeometry relative="1" as="geometry" />
        </mxCell>
        <mxCell id="BMSPjfVfwommTCz05lxM-20" value="&lt;font style=&quot;font-size: 26px&quot;&gt;Lord Caseo&lt;/font&gt;" style="rounded=0;whiteSpace=wrap;html=1;fontSize=36;fillColor=#dae8fc;strokeColor=#6c8ebf;arcSize=12;" parent="1" vertex="1">
          <mxGeometry x="2672.8" y="410" width="160" height="50" as="geometry" />
        </mxCell>
        <mxCell id="BMSPjfVfwommTCz05lxM-68" style="edgeStyle=orthogonalEdgeStyle;rounded=0;orthogonalLoop=1;jettySize=auto;html=1;exitX=1;exitY=0.5;exitDx=0;exitDy=0;entryX=0.75;entryY=0;entryDx=0;entryDy=0;fontSize=26;fontColor=default;fillColor=#dae8fc;strokeColor=#6c8ebf;dashed=1;arcSize=12;" parent="1" source="BMSPjfVfwommTCz05lxM-21" target="BMSPjfVfwommTCz05lxM-59" edge="1">
          <mxGeometry relative="1" as="geometry" />
        </mxCell>
        <mxCell id="BMSPjfVfwommTCz05lxM-200" style="edgeStyle=orthogonalEdgeStyle;rounded=0;orthogonalLoop=1;jettySize=auto;html=1;exitX=1;exitY=1;exitDx=0;exitDy=0;entryX=1;entryY=0;entryDx=0;entryDy=0;fontSize=13;fontColor=default;strokeWidth=1;fillColor=#f8cecc;strokeColor=#b85450;" parent="1" source="BMSPjfVfwommTCz05lxM-21" target="BMSPjfVfwommTCz05lxM-198" edge="1">
          <mxGeometry relative="1" as="geometry">
            <Array as="points">
              <mxPoint x="3330" y="460" />
              <mxPoint x="3330" y="1590" />
            </Array>
          </mxGeometry>
        </mxCell>
        <mxCell id="BMSPjfVfwommTCz05lxM-205" style="edgeStyle=orthogonalEdgeStyle;rounded=0;orthogonalLoop=1;jettySize=auto;html=1;exitX=0.25;exitY=0;exitDx=0;exitDy=0;entryX=1;entryY=0;entryDx=0;entryDy=0;fontSize=13;fontColor=default;strokeWidth=1;fillColor=#f8cecc;strokeColor=#b85450;dashed=1;" parent="1" source="BMSPjfVfwommTCz05lxM-21" target="BMSPjfVfwommTCz05lxM-15" edge="1">
          <mxGeometry relative="1" as="geometry" />
        </mxCell>
        <mxCell id="BMSPjfVfwommTCz05lxM-206" style="edgeStyle=orthogonalEdgeStyle;rounded=0;orthogonalLoop=1;jettySize=auto;html=1;exitX=0.25;exitY=0;exitDx=0;exitDy=0;entryX=0.887;entryY=0.013;entryDx=0;entryDy=0;entryPerimeter=0;dashed=1;fontSize=13;fontColor=default;strokeWidth=1;fillColor=#f8cecc;strokeColor=#b85450;" parent="1" source="BMSPjfVfwommTCz05lxM-21" target="BMSPjfVfwommTCz05lxM-19" edge="1">
          <mxGeometry relative="1" as="geometry" />
        </mxCell>
        <mxCell id="BMSPjfVfwommTCz05lxM-207" style="edgeStyle=orthogonalEdgeStyle;rounded=0;orthogonalLoop=1;jettySize=auto;html=1;exitX=0.25;exitY=0;exitDx=0;exitDy=0;entryX=0.883;entryY=-0.007;entryDx=0;entryDy=0;entryPerimeter=0;dashed=1;fontSize=13;fontColor=default;strokeWidth=1;fillColor=#f8cecc;strokeColor=#b85450;" parent="1" source="BMSPjfVfwommTCz05lxM-21" target="BMSPjfVfwommTCz05lxM-20" edge="1">
          <mxGeometry relative="1" as="geometry" />
        </mxCell>
        <mxCell id="BMSPjfVfwommTCz05lxM-21" value="&lt;font style=&quot;font-size: 26px&quot;&gt;Lord Dominic&lt;/font&gt;" style="rounded=0;whiteSpace=wrap;html=1;fontSize=36;fillColor=#dae8fc;strokeColor=#6c8ebf;arcSize=12;" parent="1" vertex="1">
          <mxGeometry x="2868.8" y="410" width="160" height="50" as="geometry" />
        </mxCell>
        <mxCell id="BMSPjfVfwommTCz05lxM-33" style="edgeStyle=orthogonalEdgeStyle;rounded=0;orthogonalLoop=1;jettySize=auto;html=1;exitX=0;exitY=0.75;exitDx=0;exitDy=0;entryX=0.5;entryY=0;entryDx=0;entryDy=0;fontSize=26;fontColor=default;fillColor=#d5e8d4;strokeColor=#82b366;arcSize=12;" parent="1" source="BMSPjfVfwommTCz05lxM-23" target="BMSPjfVfwommTCz05lxM-29" edge="1">
          <mxGeometry relative="1" as="geometry" />
        </mxCell>
        <mxCell id="BMSPjfVfwommTCz05lxM-37" style="edgeStyle=orthogonalEdgeStyle;rounded=0;orthogonalLoop=1;jettySize=auto;html=1;exitX=0.25;exitY=1;exitDx=0;exitDy=0;entryX=0.5;entryY=0;entryDx=0;entryDy=0;fontSize=26;fontColor=default;arcSize=12;" parent="1" source="BMSPjfVfwommTCz05lxM-23" target="BMSPjfVfwommTCz05lxM-27" edge="1">
          <mxGeometry relative="1" as="geometry" />
        </mxCell>
        <mxCell id="BMSPjfVfwommTCz05lxM-42" style="edgeStyle=orthogonalEdgeStyle;rounded=0;orthogonalLoop=1;jettySize=auto;html=1;exitX=0.75;exitY=1;exitDx=0;exitDy=0;entryX=0.5;entryY=0;entryDx=0;entryDy=0;fontSize=26;fontColor=default;arcSize=12;" parent="1" source="BMSPjfVfwommTCz05lxM-23" target="BMSPjfVfwommTCz05lxM-28" edge="1">
          <mxGeometry relative="1" as="geometry" />
        </mxCell>
        <mxCell id="BMSPjfVfwommTCz05lxM-44" style="edgeStyle=orthogonalEdgeStyle;rounded=0;orthogonalLoop=1;jettySize=auto;html=1;exitX=1;exitY=0.75;exitDx=0;exitDy=0;entryX=0.25;entryY=0;entryDx=0;entryDy=0;fontSize=26;fontColor=default;arcSize=12;" parent="1" source="BMSPjfVfwommTCz05lxM-23" target="BMSPjfVfwommTCz05lxM-30" edge="1">
          <mxGeometry relative="1" as="geometry" />
        </mxCell>
        <mxCell id="BMSPjfVfwommTCz05lxM-23" value="&lt;span&gt;King Throdin Wheelstone&lt;/span&gt;" style="rounded=0;whiteSpace=wrap;html=1;labelBackgroundColor=none;labelBorderColor=none;fontSize=26;fillColor=#fff2cc;strokeColor=#d6b656;arcSize=12;" parent="1" vertex="1">
          <mxGeometry x="2494.8" y="510" width="156" height="90" as="geometry" />
        </mxCell>
        <mxCell id="BMSPjfVfwommTCz05lxM-55" style="edgeStyle=orthogonalEdgeStyle;rounded=0;orthogonalLoop=1;jettySize=auto;html=1;exitX=0;exitY=0.5;exitDx=0;exitDy=0;entryX=1;entryY=0.5;entryDx=0;entryDy=0;fontSize=26;fontColor=default;fillColor=#d5e8d4;strokeColor=#82b366;arcSize=12;" parent="1" source="BMSPjfVfwommTCz05lxM-27" target="BMSPjfVfwommTCz05lxM-29" edge="1">
          <mxGeometry relative="1" as="geometry" />
        </mxCell>
        <mxCell id="BMSPjfVfwommTCz05lxM-108" style="edgeStyle=orthogonalEdgeStyle;rounded=0;orthogonalLoop=1;jettySize=auto;html=1;exitX=0.25;exitY=1;exitDx=0;exitDy=0;entryX=0.75;entryY=1;entryDx=0;entryDy=0;fontSize=13;fontColor=default;fillColor=#d5e8d4;strokeColor=#82b366;arcSize=12;" parent="1" source="BMSPjfVfwommTCz05lxM-27" target="BMSPjfVfwommTCz05lxM-83" edge="1">
          <mxGeometry relative="1" as="geometry" />
        </mxCell>
        <mxCell id="BMSPjfVfwommTCz05lxM-115" style="edgeStyle=orthogonalEdgeStyle;rounded=0;orthogonalLoop=1;jettySize=auto;html=1;exitX=0.5;exitY=1;exitDx=0;exitDy=0;entryX=0.5;entryY=1;entryDx=0;entryDy=0;fontSize=13;fontColor=default;fillColor=#d5e8d4;strokeColor=#82b366;arcSize=12;" parent="1" source="BMSPjfVfwommTCz05lxM-27" target="BMSPjfVfwommTCz05lxM-82" edge="1">
          <mxGeometry relative="1" as="geometry" />
        </mxCell>
        <mxCell id="BMSPjfVfwommTCz05lxM-124" style="edgeStyle=orthogonalEdgeStyle;rounded=0;orthogonalLoop=1;jettySize=auto;html=1;exitX=0.5;exitY=1;exitDx=0;exitDy=0;fontSize=13;fontColor=default;entryX=0;entryY=0.25;entryDx=0;entryDy=0;arcSize=12;" parent="1" source="BMSPjfVfwommTCz05lxM-27" target="BMSPjfVfwommTCz05lxM-125" edge="1">
          <mxGeometry relative="1" as="geometry">
            <mxPoint x="2392.8" y="870" as="targetPoint" />
          </mxGeometry>
        </mxCell>
        <mxCell id="BMSPjfVfwommTCz05lxM-128" style="edgeStyle=orthogonalEdgeStyle;rounded=0;orthogonalLoop=1;jettySize=auto;html=1;exitX=0.5;exitY=1;exitDx=0;exitDy=0;entryX=0;entryY=0.5;entryDx=0;entryDy=0;fontSize=13;fontColor=default;arcSize=12;" parent="1" source="BMSPjfVfwommTCz05lxM-27" target="BMSPjfVfwommTCz05lxM-127" edge="1">
          <mxGeometry relative="1" as="geometry" />
        </mxCell>
        <mxCell id="BMSPjfVfwommTCz05lxM-193" style="edgeStyle=orthogonalEdgeStyle;rounded=0;orthogonalLoop=1;jettySize=auto;html=1;exitX=0;exitY=1;exitDx=0;exitDy=0;entryX=1;entryY=0;entryDx=0;entryDy=0;fontSize=13;fontColor=default;strokeWidth=1;fillColor=#f8cecc;strokeColor=#b85450;dashed=1;" parent="1" source="BMSPjfVfwommTCz05lxM-27" target="BMSPjfVfwommTCz05lxM-191" edge="1">
          <mxGeometry relative="1" as="geometry" />
        </mxCell>
        <mxCell id="BMSPjfVfwommTCz05lxM-27" value="&lt;div&gt;Lord Smith&lt;/div&gt;&lt;div&gt;&lt;a href=&quot;https://app.diagrams.net/#Hcdwilliams32%2FAlossis%2Fmain%2FLord%20Smith&quot;&gt;Link&lt;/a&gt;&lt;br&gt;&lt;/div&gt;" style="rounded=0;whiteSpace=wrap;html=1;labelBackgroundColor=none;labelBorderColor=none;fontSize=26;fillColor=#fff2cc;strokeColor=#d6b656;arcSize=12;" parent="1" vertex="1">
          <mxGeometry x="2323.8" y="730" width="138" height="60" as="geometry" />
        </mxCell>
        <mxCell id="BMSPjfVfwommTCz05lxM-117" style="edgeStyle=orthogonalEdgeStyle;rounded=0;orthogonalLoop=1;jettySize=auto;html=1;exitX=0.25;exitY=1;exitDx=0;exitDy=0;entryX=0.25;entryY=1;entryDx=0;entryDy=0;fontSize=13;fontColor=default;fillColor=#d5e8d4;strokeColor=#82b366;arcSize=12;" parent="1" source="BMSPjfVfwommTCz05lxM-28" target="BMSPjfVfwommTCz05lxM-82" edge="1">
          <mxGeometry relative="1" as="geometry">
            <Array as="points">
              <mxPoint x="2803.8" y="830" />
              <mxPoint x="924.8" y="830" />
            </Array>
          </mxGeometry>
        </mxCell>
        <mxCell id="BMSPjfVfwommTCz05lxM-134" style="edgeStyle=orthogonalEdgeStyle;rounded=0;orthogonalLoop=1;jettySize=auto;html=1;exitX=0.5;exitY=1;exitDx=0;exitDy=0;entryX=0;entryY=0.5;entryDx=0;entryDy=0;fontSize=13;fontColor=default;arcSize=12;" parent="1" source="BMSPjfVfwommTCz05lxM-28" target="BMSPjfVfwommTCz05lxM-129" edge="1">
          <mxGeometry relative="1" as="geometry" />
        </mxCell>
        <mxCell id="BMSPjfVfwommTCz05lxM-135" style="edgeStyle=orthogonalEdgeStyle;rounded=0;orthogonalLoop=1;jettySize=auto;html=1;exitX=0.5;exitY=1;exitDx=0;exitDy=0;entryX=0;entryY=0.5;entryDx=0;entryDy=0;fontSize=13;fontColor=default;arcSize=12;" parent="1" source="BMSPjfVfwommTCz05lxM-28" target="BMSPjfVfwommTCz05lxM-130" edge="1">
          <mxGeometry relative="1" as="geometry" />
        </mxCell>
        <mxCell id="BMSPjfVfwommTCz05lxM-136" style="edgeStyle=orthogonalEdgeStyle;rounded=0;orthogonalLoop=1;jettySize=auto;html=1;exitX=0.5;exitY=1;exitDx=0;exitDy=0;entryX=0;entryY=0.5;entryDx=0;entryDy=0;fontSize=13;fontColor=default;arcSize=12;" parent="1" source="BMSPjfVfwommTCz05lxM-28" target="BMSPjfVfwommTCz05lxM-131" edge="1">
          <mxGeometry relative="1" as="geometry" />
        </mxCell>
        <mxCell id="BMSPjfVfwommTCz05lxM-137" style="edgeStyle=orthogonalEdgeStyle;rounded=0;orthogonalLoop=1;jettySize=auto;html=1;exitX=0.5;exitY=1;exitDx=0;exitDy=0;entryX=0;entryY=0.5;entryDx=0;entryDy=0;fontSize=13;fontColor=default;arcSize=12;" parent="1" source="BMSPjfVfwommTCz05lxM-28" target="BMSPjfVfwommTCz05lxM-132" edge="1">
          <mxGeometry relative="1" as="geometry" />
        </mxCell>
        <mxCell id="BMSPjfVfwommTCz05lxM-138" style="edgeStyle=orthogonalEdgeStyle;rounded=0;orthogonalLoop=1;jettySize=auto;html=1;exitX=0.5;exitY=1;exitDx=0;exitDy=0;entryX=0;entryY=0.5;entryDx=0;entryDy=0;fontSize=13;fontColor=default;arcSize=12;" parent="1" source="BMSPjfVfwommTCz05lxM-28" target="BMSPjfVfwommTCz05lxM-133" edge="1">
          <mxGeometry relative="1" as="geometry" />
        </mxCell>
        <mxCell id="BMSPjfVfwommTCz05lxM-28" value="&lt;div&gt;Lord Hallowy&lt;/div&gt;&lt;div&gt;&lt;a href=&quot;https://app.diagrams.net/#Hcdwilliams32%2FAlossis%2Fmain%2FLord%20Hallowy&quot;&gt;Link&lt;/a&gt;&lt;br&gt;&lt;/div&gt;" style="rounded=0;whiteSpace=wrap;html=1;labelBackgroundColor=none;labelBorderColor=none;fontSize=26;fillColor=#fff2cc;strokeColor=#d6b656;arcSize=12;" parent="1" vertex="1">
          <mxGeometry x="2769.8" y="680" width="136" height="90" as="geometry" />
        </mxCell>
        <mxCell id="BMSPjfVfwommTCz05lxM-35" style="edgeStyle=orthogonalEdgeStyle;rounded=0;orthogonalLoop=1;jettySize=auto;html=1;exitX=0.5;exitY=0;exitDx=0;exitDy=0;entryX=0;entryY=0.75;entryDx=0;entryDy=0;fontSize=26;fontColor=default;fillColor=#d5e8d4;strokeColor=#82b366;arcSize=12;" parent="1" source="BMSPjfVfwommTCz05lxM-29" target="BMSPjfVfwommTCz05lxM-23" edge="1">
          <mxGeometry relative="1" as="geometry" />
        </mxCell>
        <mxCell id="BMSPjfVfwommTCz05lxM-54" style="edgeStyle=orthogonalEdgeStyle;rounded=0;orthogonalLoop=1;jettySize=auto;html=1;exitX=1;exitY=0.5;exitDx=0;exitDy=0;entryX=0;entryY=0.5;entryDx=0;entryDy=0;fontSize=26;fontColor=default;fillColor=#d5e8d4;strokeColor=#82b366;arcSize=12;" parent="1" source="BMSPjfVfwommTCz05lxM-29" target="BMSPjfVfwommTCz05lxM-27" edge="1">
          <mxGeometry relative="1" as="geometry" />
        </mxCell>
        <mxCell id="BMSPjfVfwommTCz05lxM-113" style="edgeStyle=orthogonalEdgeStyle;rounded=0;orthogonalLoop=1;jettySize=auto;html=1;exitX=0.25;exitY=1;exitDx=0;exitDy=0;entryX=0.75;entryY=1;entryDx=0;entryDy=0;fontSize=13;fontColor=default;fillColor=#d5e8d4;strokeColor=#82b366;dashed=1;arcSize=12;" parent="1" source="BMSPjfVfwommTCz05lxM-29" target="BMSPjfVfwommTCz05lxM-82" edge="1">
          <mxGeometry relative="1" as="geometry" />
        </mxCell>
        <mxCell id="BMSPjfVfwommTCz05lxM-121" style="edgeStyle=orthogonalEdgeStyle;rounded=0;orthogonalLoop=1;jettySize=auto;html=1;exitX=0.75;exitY=1;exitDx=0;exitDy=0;entryX=0.75;entryY=1;entryDx=0;entryDy=0;dashed=1;dashPattern=1 1;fontSize=13;fontColor=default;fillColor=#d5e8d4;strokeColor=#82b366;arcSize=12;" parent="1" source="BMSPjfVfwommTCz05lxM-29" target="BMSPjfVfwommTCz05lxM-77" edge="1">
          <mxGeometry relative="1" as="geometry">
            <Array as="points">
              <mxPoint x="2102.8" y="750" />
              <mxPoint x="1434.8000000000002" y="750" />
            </Array>
          </mxGeometry>
        </mxCell>
        <mxCell id="BMSPjfVfwommTCz05lxM-148" style="edgeStyle=orthogonalEdgeStyle;rounded=0;orthogonalLoop=1;jettySize=auto;html=1;exitX=0.5;exitY=1;exitDx=0;exitDy=0;fontSize=13;fontColor=default;arcSize=12;" parent="1" source="BMSPjfVfwommTCz05lxM-29" target="BMSPjfVfwommTCz05lxM-149" edge="1">
          <mxGeometry relative="1" as="geometry">
            <mxPoint x="2068.1448275862067" y="870" as="targetPoint" />
          </mxGeometry>
        </mxCell>
        <mxCell id="BMSPjfVfwommTCz05lxM-29" value="&lt;div&gt;Lady Wheelstone&lt;/div&gt;&lt;div&gt;&lt;a href=&quot;https://app.diagrams.net/#Hcdwilliams32%2FAlossis%2Fmain%2FLady%20Wheelstone&quot;&gt;Link&lt;/a&gt;&lt;br&gt;&lt;/div&gt;" style="rounded=0;whiteSpace=wrap;html=1;labelBackgroundColor=none;labelBorderColor=none;fontSize=26;fillColor=#fff2cc;strokeColor=#d6b656;arcSize=12;" parent="1" vertex="1">
          <mxGeometry x="1998.8" y="630" width="138" height="90" as="geometry" />
        </mxCell>
        <mxCell id="BMSPjfVfwommTCz05lxM-45" style="edgeStyle=orthogonalEdgeStyle;rounded=0;orthogonalLoop=1;jettySize=auto;html=1;exitX=0.5;exitY=0;exitDx=0;exitDy=0;entryX=1;entryY=0.5;entryDx=0;entryDy=0;fontSize=26;fontColor=default;fillColor=#f8cecc;strokeColor=#b85450;arcSize=12;" parent="1" source="BMSPjfVfwommTCz05lxM-30" target="BMSPjfVfwommTCz05lxM-23" edge="1">
          <mxGeometry relative="1" as="geometry" />
        </mxCell>
        <mxCell id="BMSPjfVfwommTCz05lxM-47" style="edgeStyle=orthogonalEdgeStyle;rounded=0;orthogonalLoop=1;jettySize=auto;html=1;exitX=0.5;exitY=0;exitDx=0;exitDy=0;entryX=0.75;entryY=0;entryDx=0;entryDy=0;fontSize=26;fontColor=default;fillColor=#f8cecc;strokeColor=#b85450;arcSize=12;" parent="1" source="BMSPjfVfwommTCz05lxM-30" target="BMSPjfVfwommTCz05lxM-19" edge="1">
          <mxGeometry relative="1" as="geometry">
            <mxPoint x="3170.8" y="626" as="sourcePoint" />
            <mxPoint x="2612.8" y="406" as="targetPoint" />
            <Array as="points">
              <mxPoint x="3140" y="556" />
              <mxPoint x="2849" y="556" />
              <mxPoint x="2849" y="386" />
              <mxPoint x="2613" y="386" />
            </Array>
          </mxGeometry>
        </mxCell>
        <mxCell id="BMSPjfVfwommTCz05lxM-48" style="edgeStyle=orthogonalEdgeStyle;rounded=0;orthogonalLoop=1;jettySize=auto;html=1;exitX=0.5;exitY=0;exitDx=0;exitDy=0;entryX=0.846;entryY=-0.027;entryDx=0;entryDy=0;entryPerimeter=0;fontSize=26;fontColor=default;fillColor=#f8cecc;strokeColor=#b85450;arcSize=12;" parent="1" source="BMSPjfVfwommTCz05lxM-30" target="BMSPjfVfwommTCz05lxM-15" edge="1">
          <mxGeometry relative="1" as="geometry">
            <mxPoint x="3170.8" y="626" as="sourcePoint" />
            <mxPoint x="2448.8" y="406" as="targetPoint" />
            <Array as="points">
              <mxPoint x="3140" y="556" />
              <mxPoint x="2849" y="556" />
              <mxPoint x="2849" y="386" />
              <mxPoint x="2448" y="386" />
            </Array>
          </mxGeometry>
        </mxCell>
        <mxCell id="BMSPjfVfwommTCz05lxM-51" style="edgeStyle=orthogonalEdgeStyle;rounded=0;orthogonalLoop=1;jettySize=auto;html=1;entryX=0.5;entryY=0;entryDx=0;entryDy=0;fontSize=26;fontColor=default;fillColor=#f8cecc;strokeColor=#b85450;arcSize=12;" parent="1" target="BMSPjfVfwommTCz05lxM-20" edge="1">
          <mxGeometry relative="1" as="geometry">
            <mxPoint x="2848.8" y="556" as="sourcePoint" />
            <mxPoint x="2752.8" y="406" as="targetPoint" />
            <Array as="points">
              <mxPoint x="2848.8" y="546" />
              <mxPoint x="2847.8" y="546" />
              <mxPoint x="2847.8" y="386" />
              <mxPoint x="2752.8" y="386" />
            </Array>
          </mxGeometry>
        </mxCell>
        <UserObject label="&lt;div&gt;&lt;font style=&quot;font-size: 26px&quot;&gt;&lt;b&gt;&lt;font style=&quot;font-size: 26px&quot;&gt;Lord Strahd&lt;/font&gt;&lt;/b&gt;&lt;/font&gt;&lt;/div&gt;&lt;div&gt;&lt;font style=&quot;font-size: 26px&quot;&gt;&lt;a href=&quot;https://app.diagrams.net/#Hcdwilliams32%2FAlossis%2Fmain%2FLord%20Strahd&quot;&gt;Link&lt;/a&gt;&lt;br&gt;&lt;/font&gt;&lt;/div&gt;" id="BMSPjfVfwommTCz05lxM-30">
          <mxCell style="rounded=0;whiteSpace=wrap;html=1;labelBackgroundColor=none;labelBorderColor=none;fontSize=26;fillColor=#fff2cc;strokeColor=#d6b656;arcSize=12;" parent="1" vertex="1">
            <mxGeometry x="3090" y="610" width="110" height="90" as="geometry" />
          </mxCell>
        </UserObject>
        <mxCell id="BMSPjfVfwommTCz05lxM-60" style="edgeStyle=orthogonalEdgeStyle;rounded=0;orthogonalLoop=1;jettySize=auto;html=1;exitX=0;exitY=0.75;exitDx=0;exitDy=0;fontSize=26;fontColor=default;fillColor=#d5e8d4;strokeColor=#82b366;arcSize=12;" parent="1" source="BMSPjfVfwommTCz05lxM-53" target="BMSPjfVfwommTCz05lxM-56" edge="1">
          <mxGeometry relative="1" as="geometry" />
        </mxCell>
        <mxCell id="BMSPjfVfwommTCz05lxM-62" style="edgeStyle=orthogonalEdgeStyle;rounded=0;orthogonalLoop=1;jettySize=auto;html=1;exitX=0.25;exitY=1;exitDx=0;exitDy=0;entryX=0.5;entryY=0;entryDx=0;entryDy=0;fontSize=26;fontColor=default;fillColor=#d5e8d4;strokeColor=#82b366;arcSize=12;" parent="1" source="BMSPjfVfwommTCz05lxM-53" target="BMSPjfVfwommTCz05lxM-57" edge="1">
          <mxGeometry relative="1" as="geometry" />
        </mxCell>
        <mxCell id="BMSPjfVfwommTCz05lxM-64" style="edgeStyle=orthogonalEdgeStyle;rounded=0;orthogonalLoop=1;jettySize=auto;html=1;exitX=0.75;exitY=1;exitDx=0;exitDy=0;entryX=0.5;entryY=0;entryDx=0;entryDy=0;fontSize=26;fontColor=default;fillColor=#d5e8d4;strokeColor=#82b366;arcSize=12;" parent="1" source="BMSPjfVfwommTCz05lxM-53" target="BMSPjfVfwommTCz05lxM-58" edge="1">
          <mxGeometry relative="1" as="geometry" />
        </mxCell>
        <mxCell id="BMSPjfVfwommTCz05lxM-53" value="The Tree of Yuon" style="rounded=0;whiteSpace=wrap;html=1;labelBackgroundColor=none;labelBorderColor=none;fontSize=26;arcSize=12;fillColor=#e1d5e7;strokeColor=#9673a6;" parent="1" vertex="1">
          <mxGeometry x="3569.8" y="525" width="180" height="60" as="geometry" />
        </mxCell>
        <mxCell id="BMSPjfVfwommTCz05lxM-61" style="edgeStyle=orthogonalEdgeStyle;rounded=0;orthogonalLoop=1;jettySize=auto;html=1;exitX=0.5;exitY=0;exitDx=0;exitDy=0;entryX=0;entryY=0.75;entryDx=0;entryDy=0;fontSize=26;fontColor=default;fillColor=#d5e8d4;strokeColor=#82b366;arcSize=12;" parent="1" source="BMSPjfVfwommTCz05lxM-56" target="BMSPjfVfwommTCz05lxM-53" edge="1">
          <mxGeometry relative="1" as="geometry" />
        </mxCell>
        <mxCell id="Fj1rsP363tf5vaqWqIAK-9" style="edgeStyle=orthogonalEdgeStyle;rounded=0;orthogonalLoop=1;jettySize=auto;html=1;exitX=0.5;exitY=1;exitDx=0;exitDy=0;fontSize=13;" parent="1" source="BMSPjfVfwommTCz05lxM-56" target="Fj1rsP363tf5vaqWqIAK-8" edge="1">
          <mxGeometry relative="1" as="geometry" />
        </mxCell>
        <mxCell id="BMSPjfVfwommTCz05lxM-56" value="Giving Light&lt;br&gt;&lt;br&gt;&lt;div style=&quot;text-align: left ; font-size: 13px&quot;&gt;&lt;b&gt;Symbol&lt;/b&gt;: Fruit Basket&lt;/div&gt;&lt;div style=&quot;text-align: left ; font-size: 13px&quot;&gt;&lt;br&gt;&lt;/div&gt;&lt;div style=&quot;text-align: left ; font-size: 13px&quot;&gt;&lt;b&gt;Belief&lt;/b&gt;: Should give more than receive&lt;/div&gt;&lt;div style=&quot;text-align: left ; font-size: 13px&quot;&gt;&lt;br&gt;&lt;/div&gt;&lt;div style=&quot;text-align: left ; font-size: 13px&quot;&gt;&lt;b&gt;Main Class&lt;/b&gt;: Cleric&lt;/div&gt;" style="rounded=0;whiteSpace=wrap;html=1;labelBackgroundColor=none;labelBorderColor=none;fontSize=26;arcSize=12;fillColor=#e1d5e7;strokeColor=#9673a6;" parent="1" vertex="1">
          <mxGeometry x="3349.8" y="630" width="140" height="210" as="geometry" />
        </mxCell>
        <mxCell id="BMSPjfVfwommTCz05lxM-63" style="edgeStyle=orthogonalEdgeStyle;rounded=0;orthogonalLoop=1;jettySize=auto;html=1;exitX=0.5;exitY=0;exitDx=0;exitDy=0;entryX=0.25;entryY=1;entryDx=0;entryDy=0;fontSize=26;fontColor=default;fillColor=#d5e8d4;strokeColor=#82b366;arcSize=12;" parent="1" source="BMSPjfVfwommTCz05lxM-57" target="BMSPjfVfwommTCz05lxM-53" edge="1">
          <mxGeometry relative="1" as="geometry" />
        </mxCell>
        <mxCell id="BMSPjfVfwommTCz05lxM-196" style="edgeStyle=orthogonalEdgeStyle;rounded=0;orthogonalLoop=1;jettySize=auto;html=1;exitX=0.75;exitY=1;exitDx=0;exitDy=0;entryX=0.25;entryY=1;entryDx=0;entryDy=0;fontSize=13;fontColor=default;strokeWidth=1;fillColor=#f8cecc;strokeColor=#b85450;" parent="1" source="BMSPjfVfwommTCz05lxM-57" target="BMSPjfVfwommTCz05lxM-59" edge="1">
          <mxGeometry relative="1" as="geometry" />
        </mxCell>
        <mxCell id="BMSPjfVfwommTCz05lxM-214" style="edgeStyle=orthogonalEdgeStyle;rounded=0;orthogonalLoop=1;jettySize=auto;html=1;exitX=0.5;exitY=1;exitDx=0;exitDy=0;entryX=0.5;entryY=0;entryDx=0;entryDy=0;fontSize=13;fontColor=default;strokeWidth=1;" parent="1" source="BMSPjfVfwommTCz05lxM-57" target="BMSPjfVfwommTCz05lxM-213" edge="1">
          <mxGeometry relative="1" as="geometry" />
        </mxCell>
        <mxCell id="BMSPjfVfwommTCz05lxM-57" value="Protecting Light&lt;br style=&quot;font-size: 25px&quot;&gt;&lt;div style=&quot;text-align: left&quot;&gt;&lt;div&gt;&lt;span style=&quot;font-size: 13px&quot;&gt;&lt;b&gt;Symbol&lt;/b&gt;: Shield and Bow&lt;/span&gt;&lt;/div&gt;&lt;div&gt;&lt;span style=&quot;font-size: 13px&quot;&gt;&lt;b&gt;Belief&lt;/b&gt;: Protect others with your life&lt;/span&gt;&lt;br&gt;&lt;/div&gt;&lt;div&gt;&lt;span style=&quot;font-size: 13px&quot;&gt;&lt;b&gt;Main Class&lt;/b&gt;: Paladin&lt;/span&gt;&lt;br&gt;&lt;/div&gt;&lt;/div&gt;" style="rounded=0;whiteSpace=wrap;html=1;labelBackgroundColor=none;labelBorderColor=none;fontSize=26;arcSize=12;fillColor=#e1d5e7;strokeColor=#9673a6;" parent="1" vertex="1">
          <mxGeometry x="3509.8" y="630" width="140" height="210" as="geometry" />
        </mxCell>
        <mxCell id="BMSPjfVfwommTCz05lxM-65" style="edgeStyle=orthogonalEdgeStyle;rounded=0;orthogonalLoop=1;jettySize=auto;html=1;exitX=0.5;exitY=0;exitDx=0;exitDy=0;entryX=0.75;entryY=1;entryDx=0;entryDy=0;fontSize=26;fontColor=default;fillColor=#d5e8d4;strokeColor=#82b366;arcSize=12;" parent="1" source="BMSPjfVfwommTCz05lxM-58" target="BMSPjfVfwommTCz05lxM-53" edge="1">
          <mxGeometry relative="1" as="geometry" />
        </mxCell>
        <mxCell id="BMSPjfVfwommTCz05lxM-58" value="Illuminating Light&lt;br&gt;&lt;div style=&quot;text-align: left&quot;&gt;&lt;span style=&quot;font-size: 13px&quot;&gt;&lt;b&gt;Symbol&lt;/b&gt;: Leaves Blowing in the Wind&lt;/span&gt;&lt;/div&gt;&lt;div style=&quot;text-align: left&quot;&gt;&lt;span style=&quot;font-size: 13px&quot;&gt;&lt;b&gt;Belief&lt;/b&gt;: True beauty&amp;nbsp;is seen as a whole&lt;/span&gt;&lt;br&gt;&lt;/div&gt;&lt;div style=&quot;text-align: left&quot;&gt;&lt;span style=&quot;font-size: 13px&quot;&gt;&lt;b&gt;Main Class&lt;/b&gt;: Bard&lt;/span&gt;&lt;/div&gt;" style="rounded=0;whiteSpace=wrap;html=1;labelBackgroundColor=none;labelBorderColor=none;fontSize=26;arcSize=12;fillColor=#e1d5e7;strokeColor=#9673a6;" parent="1" vertex="1">
          <mxGeometry x="3669.8" y="630" width="140" height="210" as="geometry" />
        </mxCell>
        <mxCell id="BMSPjfVfwommTCz05lxM-74" style="edgeStyle=orthogonalEdgeStyle;rounded=0;orthogonalLoop=1;jettySize=auto;html=1;exitX=0.5;exitY=0;exitDx=0;exitDy=0;entryX=1;entryY=0.75;entryDx=0;entryDy=0;fontSize=13;fontColor=default;fillColor=#f8cecc;strokeColor=#b85450;arcSize=12;" parent="1" source="BMSPjfVfwommTCz05lxM-59" target="BMSPjfVfwommTCz05lxM-53" edge="1">
          <mxGeometry relative="1" as="geometry" />
        </mxCell>
        <mxCell id="BMSPjfVfwommTCz05lxM-59" value="Midnight Light&lt;br&gt;&lt;div style=&quot;text-align: left&quot;&gt;&lt;span style=&quot;font-size: 13px&quot;&gt;&lt;b&gt;Symbol&lt;/b&gt;: Roots&amp;nbsp;&lt;/span&gt;&lt;/div&gt;&lt;div style=&quot;text-align: left&quot;&gt;&lt;span style=&quot;font-size: 13px&quot;&gt;Entangled&lt;/span&gt;&lt;/div&gt;&lt;div style=&quot;text-align: left&quot;&gt;&lt;span style=&quot;font-size: 13px&quot;&gt;&lt;b&gt;Belief&lt;/b&gt;: Never forget your feelings&lt;/span&gt;&lt;br&gt;&lt;/div&gt;&lt;div style=&quot;text-align: left&quot;&gt;&lt;span style=&quot;font-size: 13px&quot;&gt;&lt;b&gt;Main Class&lt;/b&gt;: Warlock&lt;/span&gt;&lt;/div&gt;" style="rounded=0;whiteSpace=wrap;html=1;labelBackgroundColor=none;labelBorderColor=none;fontSize=26;arcSize=12;fillColor=#e1d5e7;strokeColor=#9673a6;" parent="1" vertex="1">
          <mxGeometry x="3829.8" y="630" width="140" height="210" as="geometry" />
        </mxCell>
        <mxCell id="BMSPjfVfwommTCz05lxM-71" style="edgeStyle=orthogonalEdgeStyle;rounded=0;orthogonalLoop=1;jettySize=auto;html=1;exitX=0.25;exitY=1;exitDx=0;exitDy=0;entryX=0.25;entryY=0;entryDx=0;entryDy=0;fontSize=26;fontColor=default;fillColor=#dae8fc;strokeColor=#6c8ebf;dashed=1;arcSize=12;" parent="1" source="BMSPjfVfwommTCz05lxM-15" target="BMSPjfVfwommTCz05lxM-56" edge="1">
          <mxGeometry relative="1" as="geometry">
            <Array as="points">
              <mxPoint x="2352.8" y="470" />
              <mxPoint x="3384.8" y="470" />
            </Array>
          </mxGeometry>
        </mxCell>
        <mxCell id="BMSPjfVfwommTCz05lxM-84" style="edgeStyle=orthogonalEdgeStyle;rounded=0;orthogonalLoop=1;jettySize=auto;html=1;exitX=0;exitY=0.75;exitDx=0;exitDy=0;entryX=0.5;entryY=0;entryDx=0;entryDy=0;fontSize=26;fontColor=default;fillColor=#d5e8d4;strokeColor=#82b366;arcSize=12;" parent="1" source="BMSPjfVfwommTCz05lxM-76" target="BMSPjfVfwommTCz05lxM-82" edge="1">
          <mxGeometry relative="1" as="geometry" />
        </mxCell>
        <mxCell id="BMSPjfVfwommTCz05lxM-86" style="edgeStyle=orthogonalEdgeStyle;rounded=0;orthogonalLoop=1;jettySize=auto;html=1;exitX=0;exitY=0.75;exitDx=0;exitDy=0;fontSize=26;fontColor=default;fillColor=#d5e8d4;strokeColor=#82b366;arcSize=12;" parent="1" source="BMSPjfVfwommTCz05lxM-76" target="BMSPjfVfwommTCz05lxM-79" edge="1">
          <mxGeometry relative="1" as="geometry" />
        </mxCell>
        <mxCell id="BMSPjfVfwommTCz05lxM-90" style="edgeStyle=orthogonalEdgeStyle;rounded=0;orthogonalLoop=1;jettySize=auto;html=1;exitX=0;exitY=1;exitDx=0;exitDy=0;entryX=0.5;entryY=0;entryDx=0;entryDy=0;fontSize=26;fontColor=default;fillColor=#d5e8d4;strokeColor=#82b366;arcSize=12;" parent="1" source="BMSPjfVfwommTCz05lxM-76" target="BMSPjfVfwommTCz05lxM-81" edge="1">
          <mxGeometry relative="1" as="geometry" />
        </mxCell>
        <mxCell id="BMSPjfVfwommTCz05lxM-91" style="edgeStyle=orthogonalEdgeStyle;rounded=0;orthogonalLoop=1;jettySize=auto;html=1;exitX=0.5;exitY=1;exitDx=0;exitDy=0;entryX=0.5;entryY=0;entryDx=0;entryDy=0;fontSize=26;fontColor=default;fillColor=#d5e8d4;strokeColor=#82b366;arcSize=12;" parent="1" source="BMSPjfVfwommTCz05lxM-76" target="BMSPjfVfwommTCz05lxM-77" edge="1">
          <mxGeometry relative="1" as="geometry" />
        </mxCell>
        <mxCell id="BMSPjfVfwommTCz05lxM-93" style="edgeStyle=orthogonalEdgeStyle;rounded=0;orthogonalLoop=1;jettySize=auto;html=1;exitX=1;exitY=1;exitDx=0;exitDy=0;entryX=0.5;entryY=0;entryDx=0;entryDy=0;fontSize=26;fontColor=default;fillColor=#d5e8d4;strokeColor=#82b366;arcSize=12;" parent="1" source="BMSPjfVfwommTCz05lxM-76" target="BMSPjfVfwommTCz05lxM-83" edge="1">
          <mxGeometry relative="1" as="geometry" />
        </mxCell>
        <mxCell id="BMSPjfVfwommTCz05lxM-95" style="edgeStyle=orthogonalEdgeStyle;rounded=0;orthogonalLoop=1;jettySize=auto;html=1;exitX=1;exitY=0.75;exitDx=0;exitDy=0;entryX=0.5;entryY=0;entryDx=0;entryDy=0;fontSize=26;fontColor=default;fillColor=#d5e8d4;strokeColor=#82b366;arcSize=12;" parent="1" source="BMSPjfVfwommTCz05lxM-76" target="BMSPjfVfwommTCz05lxM-80" edge="1">
          <mxGeometry relative="1" as="geometry" />
        </mxCell>
        <mxCell id="BMSPjfVfwommTCz05lxM-107" style="edgeStyle=orthogonalEdgeStyle;rounded=0;orthogonalLoop=1;jettySize=auto;html=1;exitX=1;exitY=0.5;exitDx=0;exitDy=0;entryX=0.25;entryY=0;entryDx=0;entryDy=0;fontSize=13;fontColor=default;fillColor=#d5e8d4;strokeColor=#82b366;arcSize=12;" parent="1" source="BMSPjfVfwommTCz05lxM-76" target="BMSPjfVfwommTCz05lxM-78" edge="1">
          <mxGeometry relative="1" as="geometry" />
        </mxCell>
        <mxCell id="BMSPjfVfwommTCz05lxM-76" value="&lt;font style=&quot;font-size: 26px&quot;&gt;The Celler&amp;nbsp;&lt;/font&gt;" style="rounded=0;whiteSpace=wrap;html=1;labelBackgroundColor=none;labelBorderColor=none;fontSize=13;arcSize=12;fillColor=#ffe6cc;strokeColor=#d79b00;" parent="1" vertex="1">
          <mxGeometry x="1329.8000000000002" y="470" width="150" height="60" as="geometry" />
        </mxCell>
        <mxCell id="BMSPjfVfwommTCz05lxM-92" style="edgeStyle=orthogonalEdgeStyle;rounded=0;orthogonalLoop=1;jettySize=auto;html=1;exitX=0.5;exitY=0;exitDx=0;exitDy=0;entryX=0.5;entryY=1;entryDx=0;entryDy=0;fontSize=26;fontColor=default;fillColor=#d5e8d4;strokeColor=#82b366;arcSize=12;" parent="1" source="BMSPjfVfwommTCz05lxM-77" target="BMSPjfVfwommTCz05lxM-76" edge="1">
          <mxGeometry relative="1" as="geometry" />
        </mxCell>
        <mxCell id="BMSPjfVfwommTCz05lxM-77" value="Sake&lt;br&gt;&lt;font style=&quot;font-size: 13px&quot;&gt;Assassination&lt;/font&gt;" style="rounded=0;whiteSpace=wrap;html=1;labelBackgroundColor=none;labelBorderColor=none;fontSize=26;arcSize=12;fillColor=#ffe6cc;strokeColor=#d79b00;" parent="1" vertex="1">
          <mxGeometry x="1344.8000000000002" y="630" width="120" height="90" as="geometry" />
        </mxCell>
        <mxCell id="BMSPjfVfwommTCz05lxM-105" style="edgeStyle=orthogonalEdgeStyle;rounded=0;orthogonalLoop=1;jettySize=auto;html=1;exitX=0.75;exitY=0;exitDx=0;exitDy=0;entryX=1;entryY=0.25;entryDx=0;entryDy=0;fontSize=13;fontColor=default;fillColor=#f8cecc;strokeColor=#b85450;arcSize=12;" parent="1" source="BMSPjfVfwommTCz05lxM-78" target="BMSPjfVfwommTCz05lxM-76" edge="1">
          <mxGeometry relative="1" as="geometry" />
        </mxCell>
        <mxCell id="BMSPjfVfwommTCz05lxM-78" value="Whiskey&lt;br&gt;&lt;span style=&quot;font-size: 13px&quot;&gt;Security&lt;/span&gt;" style="rounded=0;whiteSpace=wrap;html=1;labelBackgroundColor=none;labelBorderColor=none;fontSize=26;arcSize=12;fillColor=#ffe6cc;strokeColor=#d79b00;" parent="1" vertex="1">
          <mxGeometry x="1794.8000000000002" y="630" width="120" height="90" as="geometry" />
        </mxCell>
        <mxCell id="BMSPjfVfwommTCz05lxM-87" style="edgeStyle=orthogonalEdgeStyle;rounded=0;orthogonalLoop=1;jettySize=auto;html=1;exitX=0.5;exitY=0;exitDx=0;exitDy=0;entryX=0;entryY=0.75;entryDx=0;entryDy=0;fontSize=26;fontColor=default;fillColor=#d5e8d4;strokeColor=#82b366;arcSize=12;" parent="1" source="BMSPjfVfwommTCz05lxM-79" target="BMSPjfVfwommTCz05lxM-76" edge="1">
          <mxGeometry relative="1" as="geometry" />
        </mxCell>
        <mxCell id="BMSPjfVfwommTCz05lxM-209" style="edgeStyle=orthogonalEdgeStyle;rounded=0;orthogonalLoop=1;jettySize=auto;html=1;exitX=0.75;exitY=1;exitDx=0;exitDy=0;fontSize=13;fontColor=default;strokeWidth=1;fillColor=#d5e8d4;strokeColor=#82b366;dashed=1;dashPattern=1 4;" parent="1" source="BMSPjfVfwommTCz05lxM-79" edge="1">
          <mxGeometry relative="1" as="geometry">
            <Array as="points">
              <mxPoint x="1135" y="1130" />
              <mxPoint x="1855" y="1130" />
              <mxPoint x="1855" y="1490" />
            </Array>
            <mxPoint x="1860" y="1490" as="targetPoint" />
          </mxGeometry>
        </mxCell>
        <mxCell id="BMSPjfVfwommTCz05lxM-79" value="Gin&lt;br&gt;&lt;div&gt;&lt;span style=&quot;font-size: 13px&quot;&gt;Small Client Outreach&lt;/span&gt;&lt;/div&gt;" style="rounded=0;whiteSpace=wrap;html=1;labelBackgroundColor=none;labelBorderColor=none;fontSize=26;arcSize=12;fillColor=#ffe6cc;strokeColor=#d79b00;" parent="1" vertex="1">
          <mxGeometry x="1044.8000000000002" y="630" width="120" height="90" as="geometry" />
        </mxCell>
        <mxCell id="BMSPjfVfwommTCz05lxM-96" style="edgeStyle=orthogonalEdgeStyle;rounded=0;orthogonalLoop=1;jettySize=auto;html=1;exitX=0.5;exitY=0;exitDx=0;exitDy=0;entryX=1;entryY=0.75;entryDx=0;entryDy=0;fontSize=26;fontColor=default;fillColor=#d5e8d4;strokeColor=#82b366;arcSize=12;" parent="1" source="BMSPjfVfwommTCz05lxM-80" target="BMSPjfVfwommTCz05lxM-76" edge="1">
          <mxGeometry relative="1" as="geometry" />
        </mxCell>
        <mxCell id="BMSPjfVfwommTCz05lxM-110" style="edgeStyle=orthogonalEdgeStyle;rounded=0;orthogonalLoop=1;jettySize=auto;html=1;exitX=0.75;exitY=1;exitDx=0;exitDy=0;entryX=0;entryY=0.75;entryDx=0;entryDy=0;fontSize=13;fontColor=default;fillColor=#f8cecc;strokeColor=#b85450;arcSize=12;" parent="1" source="BMSPjfVfwommTCz05lxM-80" target="BMSPjfVfwommTCz05lxM-27" edge="1">
          <mxGeometry relative="1" as="geometry" />
        </mxCell>
        <mxCell id="BMSPjfVfwommTCz05lxM-111" style="edgeStyle=orthogonalEdgeStyle;rounded=0;orthogonalLoop=1;jettySize=auto;html=1;exitX=1;exitY=0.75;exitDx=0;exitDy=0;entryX=0;entryY=0.75;entryDx=0;entryDy=0;fontSize=13;fontColor=default;fillColor=#f8cecc;strokeColor=#b85450;arcSize=12;" parent="1" source="BMSPjfVfwommTCz05lxM-80" target="BMSPjfVfwommTCz05lxM-78" edge="1">
          <mxGeometry relative="1" as="geometry" />
        </mxCell>
        <mxCell id="BMSPjfVfwommTCz05lxM-168" style="edgeStyle=orthogonalEdgeStyle;rounded=0;orthogonalLoop=1;jettySize=auto;html=1;exitX=0.5;exitY=1;exitDx=0;exitDy=0;entryX=0;entryY=0;entryDx=0;entryDy=0;fontSize=13;fontColor=default;fillColor=#f8cecc;strokeColor=#b85450;arcSize=12;" parent="1" source="BMSPjfVfwommTCz05lxM-80" target="BMSPjfVfwommTCz05lxM-153" edge="1">
          <mxGeometry relative="1" as="geometry" />
        </mxCell>
        <mxCell id="BMSPjfVfwommTCz05lxM-80" value="Vodka&lt;br&gt;&lt;font style=&quot;font-size: 13px&quot;&gt;Internal Investigations&lt;/font&gt;" style="rounded=0;whiteSpace=wrap;html=1;labelBackgroundColor=none;labelBorderColor=none;fontSize=26;arcSize=12;fillColor=#ffe6cc;strokeColor=#d79b00;" parent="1" vertex="1">
          <mxGeometry x="1644.8000000000002" y="630" width="120" height="90" as="geometry" />
        </mxCell>
        <mxCell id="BMSPjfVfwommTCz05lxM-89" style="edgeStyle=orthogonalEdgeStyle;rounded=0;orthogonalLoop=1;jettySize=auto;html=1;exitX=0.5;exitY=0;exitDx=0;exitDy=0;entryX=0;entryY=1;entryDx=0;entryDy=0;fontSize=26;fontColor=default;fillColor=#d5e8d4;strokeColor=#82b366;arcSize=12;" parent="1" source="BMSPjfVfwommTCz05lxM-81" target="BMSPjfVfwommTCz05lxM-76" edge="1">
          <mxGeometry relative="1" as="geometry" />
        </mxCell>
        <mxCell id="BMSPjfVfwommTCz05lxM-211" style="edgeStyle=orthogonalEdgeStyle;rounded=0;orthogonalLoop=1;jettySize=auto;html=1;entryX=0.5;entryY=0;entryDx=0;entryDy=0;dashed=1;dashPattern=1 4;fontSize=13;fontColor=default;strokeWidth=1;fillColor=#d5e8d4;strokeColor=#82b366;exitX=1;exitY=1;exitDx=0;exitDy=0;" parent="1" source="BMSPjfVfwommTCz05lxM-81" target="BMSPjfVfwommTCz05lxM-208" edge="1">
          <mxGeometry relative="1" as="geometry">
            <Array as="points">
              <mxPoint x="1315" y="1090" />
              <mxPoint x="1885" y="1090" />
            </Array>
            <mxPoint x="1255" y="740" as="sourcePoint" />
          </mxGeometry>
        </mxCell>
        <mxCell id="Fj1rsP363tf5vaqWqIAK-3" style="edgeStyle=orthogonalEdgeStyle;rounded=0;orthogonalLoop=1;jettySize=auto;html=1;exitX=0.25;exitY=1;exitDx=0;exitDy=0;entryX=0.5;entryY=0;entryDx=0;entryDy=0;fontSize=13;" parent="1" source="BMSPjfVfwommTCz05lxM-81" target="Fj1rsP363tf5vaqWqIAK-2" edge="1">
          <mxGeometry relative="1" as="geometry">
            <Array as="points">
              <mxPoint x="1210" y="720" />
            </Array>
          </mxGeometry>
        </mxCell>
        <mxCell id="BMSPjfVfwommTCz05lxM-81" value="Rum&lt;br&gt;&lt;font style=&quot;font-size: 13px&quot;&gt;Drugs&lt;/font&gt;" style="rounded=0;whiteSpace=wrap;html=1;labelBackgroundColor=none;labelBorderColor=none;fontSize=26;arcSize=12;fillColor=#ffe6cc;strokeColor=#d79b00;" parent="1" vertex="1">
          <mxGeometry x="1194.8000000000002" y="630" width="120" height="90" as="geometry" />
        </mxCell>
        <mxCell id="BMSPjfVfwommTCz05lxM-85" style="edgeStyle=orthogonalEdgeStyle;rounded=0;orthogonalLoop=1;jettySize=auto;html=1;exitX=0.5;exitY=0;exitDx=0;exitDy=0;entryX=0;entryY=0.75;entryDx=0;entryDy=0;fontSize=26;fontColor=default;fillColor=#d5e8d4;strokeColor=#82b366;arcSize=12;" parent="1" source="BMSPjfVfwommTCz05lxM-82" target="BMSPjfVfwommTCz05lxM-76" edge="1">
          <mxGeometry relative="1" as="geometry" />
        </mxCell>
        <mxCell id="BMSPjfVfwommTCz05lxM-114" style="edgeStyle=orthogonalEdgeStyle;rounded=0;orthogonalLoop=1;jettySize=auto;html=1;exitX=0.5;exitY=1;exitDx=0;exitDy=0;entryX=0.5;entryY=1;entryDx=0;entryDy=0;fontSize=13;fontColor=default;fillColor=#d5e8d4;strokeColor=#82b366;arcSize=12;" parent="1" source="BMSPjfVfwommTCz05lxM-82" target="BMSPjfVfwommTCz05lxM-27" edge="1">
          <mxGeometry relative="1" as="geometry" />
        </mxCell>
        <mxCell id="BMSPjfVfwommTCz05lxM-116" style="edgeStyle=orthogonalEdgeStyle;rounded=0;orthogonalLoop=1;jettySize=auto;html=1;exitX=0.25;exitY=1;exitDx=0;exitDy=0;entryX=0.25;entryY=1;entryDx=0;entryDy=0;fontSize=13;fontColor=default;fillColor=#d5e8d4;strokeColor=#82b366;arcSize=12;" parent="1" source="BMSPjfVfwommTCz05lxM-82" target="BMSPjfVfwommTCz05lxM-28" edge="1">
          <mxGeometry relative="1" as="geometry">
            <Array as="points">
              <mxPoint x="924.8" y="830" />
              <mxPoint x="2803.8" y="830" />
            </Array>
          </mxGeometry>
        </mxCell>
        <mxCell id="BMSPjfVfwommTCz05lxM-118" style="edgeStyle=orthogonalEdgeStyle;rounded=0;orthogonalLoop=1;jettySize=auto;html=1;exitX=1;exitY=1;exitDx=0;exitDy=0;entryX=0.25;entryY=1;entryDx=0;entryDy=0;fontSize=13;fontColor=default;dashed=1;fillColor=#d5e8d4;strokeColor=#82b366;arcSize=12;" parent="1" source="BMSPjfVfwommTCz05lxM-82" target="BMSPjfVfwommTCz05lxM-30" edge="1">
          <mxGeometry relative="1" as="geometry">
            <Array as="points">
              <mxPoint x="1015" y="820" />
              <mxPoint x="3115" y="820" />
            </Array>
          </mxGeometry>
        </mxCell>
        <mxCell id="BMSPjfVfwommTCz05lxM-143" style="edgeStyle=orthogonalEdgeStyle;rounded=0;orthogonalLoop=1;jettySize=auto;html=1;exitX=0;exitY=1;exitDx=0;exitDy=0;entryX=0;entryY=0.75;entryDx=0;entryDy=0;fontSize=13;fontColor=default;fillColor=#d5e8d4;strokeColor=#82b366;arcSize=12;" parent="1" source="BMSPjfVfwommTCz05lxM-82" target="BMSPjfVfwommTCz05lxM-133" edge="1">
          <mxGeometry relative="1" as="geometry" />
        </mxCell>
        <mxCell id="BMSPjfVfwommTCz05lxM-167" style="edgeStyle=orthogonalEdgeStyle;rounded=0;orthogonalLoop=1;jettySize=auto;html=1;exitX=0;exitY=0.75;exitDx=0;exitDy=0;entryX=0;entryY=0.25;entryDx=0;entryDy=0;fontSize=13;fontColor=default;fillColor=#d5e8d4;strokeColor=#82b366;arcSize=12;" parent="1" source="BMSPjfVfwommTCz05lxM-82" target="BMSPjfVfwommTCz05lxM-153" edge="1">
          <mxGeometry relative="1" as="geometry">
            <Array as="points">
              <mxPoint x="875" y="698" />
              <mxPoint x="875" y="1400" />
              <mxPoint x="2345" y="1400" />
              <mxPoint x="2345" y="1585" />
            </Array>
          </mxGeometry>
        </mxCell>
        <mxCell id="BMSPjfVfwommTCz05lxM-82" value="Brandy&lt;br&gt;&lt;font style=&quot;font-size: 13px&quot;&gt;Large Client Outreach&lt;/font&gt;" style="rounded=0;whiteSpace=wrap;html=1;labelBackgroundColor=none;labelBorderColor=none;fontSize=26;arcSize=12;fillColor=#ffe6cc;strokeColor=#d79b00;" parent="1" vertex="1">
          <mxGeometry x="894.8" y="630" width="120" height="90" as="geometry" />
        </mxCell>
        <mxCell id="BMSPjfVfwommTCz05lxM-94" style="edgeStyle=orthogonalEdgeStyle;rounded=0;orthogonalLoop=1;jettySize=auto;html=1;exitX=0.5;exitY=0;exitDx=0;exitDy=0;entryX=1;entryY=1;entryDx=0;entryDy=0;fontSize=26;fontColor=default;fillColor=#d5e8d4;strokeColor=#82b366;arcSize=12;" parent="1" source="BMSPjfVfwommTCz05lxM-83" target="BMSPjfVfwommTCz05lxM-76" edge="1">
          <mxGeometry relative="1" as="geometry" />
        </mxCell>
        <mxCell id="BMSPjfVfwommTCz05lxM-109" style="edgeStyle=orthogonalEdgeStyle;rounded=0;orthogonalLoop=1;jettySize=auto;html=1;exitX=0.75;exitY=1;exitDx=0;exitDy=0;entryX=0.25;entryY=1;entryDx=0;entryDy=0;fontSize=13;fontColor=default;fillColor=#d5e8d4;strokeColor=#82b366;arcSize=12;" parent="1" source="BMSPjfVfwommTCz05lxM-83" target="BMSPjfVfwommTCz05lxM-27" edge="1">
          <mxGeometry relative="1" as="geometry" />
        </mxCell>
        <mxCell id="BMSPjfVfwommTCz05lxM-83" value="Tequila&lt;br&gt;&lt;font style=&quot;font-size: 13px&quot;&gt;Red Light&lt;/font&gt;" style="rounded=0;whiteSpace=wrap;html=1;labelBackgroundColor=none;labelBorderColor=none;fontSize=26;arcSize=12;fillColor=#ffe6cc;strokeColor=#d79b00;" parent="1" vertex="1">
          <mxGeometry x="1494.8000000000002" y="630" width="120" height="90" as="geometry" />
        </mxCell>
        <mxCell id="BMSPjfVfwommTCz05lxM-152" style="edgeStyle=orthogonalEdgeStyle;rounded=0;orthogonalLoop=1;jettySize=auto;html=1;exitX=0;exitY=0.5;exitDx=0;exitDy=0;entryX=1;entryY=0.5;entryDx=0;entryDy=0;fontSize=13;fontColor=default;fillColor=#f8cecc;strokeColor=#b85450;arcSize=12;" parent="1" source="BMSPjfVfwommTCz05lxM-125" target="BMSPjfVfwommTCz05lxM-149" edge="1">
          <mxGeometry relative="1" as="geometry" />
        </mxCell>
        <mxCell id="BMSPjfVfwommTCz05lxM-125" value="Mara Smith" style="rounded=0;whiteSpace=wrap;html=1;labelBackgroundColor=none;labelBorderColor=none;fontSize=13;fontColor=default;arcSize=12;" parent="1" vertex="1">
          <mxGeometry x="2419.8" y="960" width="120" height="60" as="geometry" />
        </mxCell>
        <mxCell id="BMSPjfVfwommTCz05lxM-147" style="edgeStyle=orthogonalEdgeStyle;rounded=0;orthogonalLoop=1;jettySize=auto;html=1;exitX=1;exitY=0.75;exitDx=0;exitDy=0;entryX=0;entryY=0.25;entryDx=0;entryDy=0;dashed=1;fontSize=13;fontColor=default;fillColor=#d5e8d4;strokeColor=#82b366;arcSize=12;" parent="1" source="BMSPjfVfwommTCz05lxM-127" target="BMSPjfVfwommTCz05lxM-133" edge="1">
          <mxGeometry relative="1" as="geometry" />
        </mxCell>
        <mxCell id="BMSPjfVfwommTCz05lxM-127" value="Luther Smith" style="rounded=0;whiteSpace=wrap;html=1;labelBackgroundColor=none;labelBorderColor=none;fontSize=13;fontColor=default;arcSize=12;" parent="1" vertex="1">
          <mxGeometry x="2419.8" y="880" width="120" height="60" as="geometry" />
        </mxCell>
        <mxCell id="BMSPjfVfwommTCz05lxM-150" style="edgeStyle=orthogonalEdgeStyle;rounded=0;orthogonalLoop=1;jettySize=auto;html=1;exitX=0;exitY=0.25;exitDx=0;exitDy=0;entryX=1;entryY=0.25;entryDx=0;entryDy=0;fontSize=13;fontColor=default;fillColor=#d5e8d4;strokeColor=#82b366;arcSize=12;" parent="1" source="BMSPjfVfwommTCz05lxM-129" target="BMSPjfVfwommTCz05lxM-149" edge="1">
          <mxGeometry relative="1" as="geometry" />
        </mxCell>
        <mxCell id="BMSPjfVfwommTCz05lxM-129" value="1st Brother" style="rounded=0;whiteSpace=wrap;html=1;labelBackgroundColor=none;labelBorderColor=none;fontSize=13;fontColor=default;arcSize=12;" parent="1" vertex="1">
          <mxGeometry x="2859.8" y="850" width="120" height="60" as="geometry" />
        </mxCell>
        <mxCell id="BMSPjfVfwommTCz05lxM-130" value="2nd Brother" style="rounded=0;whiteSpace=wrap;html=1;labelBackgroundColor=none;labelBorderColor=none;fontSize=13;fontColor=default;arcSize=12;" parent="1" vertex="1">
          <mxGeometry x="2859.8" y="930" width="120" height="60" as="geometry" />
        </mxCell>
        <mxCell id="BMSPjfVfwommTCz05lxM-131" value="4th Brother" style="rounded=0;whiteSpace=wrap;html=1;labelBackgroundColor=none;labelBorderColor=none;fontSize=13;fontColor=default;arcSize=12;" parent="1" vertex="1">
          <mxGeometry x="2859.8" y="1010" width="120" height="60" as="geometry" />
        </mxCell>
        <mxCell id="BMSPjfVfwommTCz05lxM-132" value="5th Brother" style="rounded=0;whiteSpace=wrap;html=1;labelBackgroundColor=none;labelBorderColor=none;fontSize=13;fontColor=default;arcSize=12;" parent="1" vertex="1">
          <mxGeometry x="2859.8" y="1090" width="120" height="60" as="geometry" />
        </mxCell>
        <mxCell id="BMSPjfVfwommTCz05lxM-139" style="edgeStyle=orthogonalEdgeStyle;rounded=0;orthogonalLoop=1;jettySize=auto;html=1;exitX=1;exitY=0.5;exitDx=0;exitDy=0;entryX=1;entryY=0.5;entryDx=0;entryDy=0;fontSize=13;fontColor=default;fillColor=#f8cecc;strokeColor=#b85450;arcSize=12;" parent="1" source="BMSPjfVfwommTCz05lxM-133" target="BMSPjfVfwommTCz05lxM-132" edge="1">
          <mxGeometry relative="1" as="geometry" />
        </mxCell>
        <mxCell id="BMSPjfVfwommTCz05lxM-140" style="edgeStyle=orthogonalEdgeStyle;rounded=0;orthogonalLoop=1;jettySize=auto;html=1;exitX=1;exitY=0.5;exitDx=0;exitDy=0;entryX=1;entryY=0.5;entryDx=0;entryDy=0;fontSize=13;fontColor=default;fillColor=#f8cecc;strokeColor=#b85450;arcSize=12;" parent="1" source="BMSPjfVfwommTCz05lxM-133" target="BMSPjfVfwommTCz05lxM-131" edge="1">
          <mxGeometry relative="1" as="geometry" />
        </mxCell>
        <mxCell id="BMSPjfVfwommTCz05lxM-141" style="edgeStyle=orthogonalEdgeStyle;rounded=0;orthogonalLoop=1;jettySize=auto;html=1;exitX=1;exitY=0.5;exitDx=0;exitDy=0;entryX=1;entryY=0.5;entryDx=0;entryDy=0;fontSize=13;fontColor=default;fillColor=#f8cecc;strokeColor=#b85450;arcSize=12;" parent="1" source="BMSPjfVfwommTCz05lxM-133" target="BMSPjfVfwommTCz05lxM-130" edge="1">
          <mxGeometry relative="1" as="geometry" />
        </mxCell>
        <mxCell id="BMSPjfVfwommTCz05lxM-142" style="edgeStyle=orthogonalEdgeStyle;rounded=0;orthogonalLoop=1;jettySize=auto;html=1;exitX=1;exitY=0.5;exitDx=0;exitDy=0;entryX=1;entryY=0.5;entryDx=0;entryDy=0;fontSize=13;fontColor=default;fillColor=#f8cecc;strokeColor=#b85450;arcSize=12;" parent="1" source="BMSPjfVfwommTCz05lxM-133" target="BMSPjfVfwommTCz05lxM-129" edge="1">
          <mxGeometry relative="1" as="geometry" />
        </mxCell>
        <mxCell id="BMSPjfVfwommTCz05lxM-144" style="edgeStyle=orthogonalEdgeStyle;rounded=0;orthogonalLoop=1;jettySize=auto;html=1;exitX=0;exitY=0.75;exitDx=0;exitDy=0;entryX=0;entryY=1;entryDx=0;entryDy=0;fontSize=13;fontColor=default;fillColor=#d5e8d4;strokeColor=#82b366;arcSize=12;" parent="1" source="BMSPjfVfwommTCz05lxM-133" target="BMSPjfVfwommTCz05lxM-82" edge="1">
          <mxGeometry relative="1" as="geometry" />
        </mxCell>
        <mxCell id="BMSPjfVfwommTCz05lxM-145" style="edgeStyle=orthogonalEdgeStyle;rounded=0;orthogonalLoop=1;jettySize=auto;html=1;exitX=0;exitY=0.75;exitDx=0;exitDy=0;entryX=0.5;entryY=1;entryDx=0;entryDy=0;fontSize=13;fontColor=default;fillColor=#d5e8d4;strokeColor=#82b366;dashed=1;dashPattern=1 1;arcSize=12;" parent="1" source="BMSPjfVfwommTCz05lxM-133" target="BMSPjfVfwommTCz05lxM-77" edge="1">
          <mxGeometry relative="1" as="geometry" />
        </mxCell>
        <mxCell id="BMSPjfVfwommTCz05lxM-146" style="edgeStyle=orthogonalEdgeStyle;rounded=0;orthogonalLoop=1;jettySize=auto;html=1;exitX=0;exitY=0.75;exitDx=0;exitDy=0;entryX=0.75;entryY=1;entryDx=0;entryDy=0;dashed=1;dashPattern=1 1;fontSize=13;fontColor=default;fillColor=#d5e8d4;strokeColor=#82b366;arcSize=12;" parent="1" source="BMSPjfVfwommTCz05lxM-133" target="BMSPjfVfwommTCz05lxM-81" edge="1">
          <mxGeometry relative="1" as="geometry" />
        </mxCell>
        <mxCell id="BMSPjfVfwommTCz05lxM-156" style="edgeStyle=orthogonalEdgeStyle;rounded=0;orthogonalLoop=1;jettySize=auto;html=1;exitX=0;exitY=0;exitDx=0;exitDy=0;entryX=1;entryY=1;entryDx=0;entryDy=0;fontSize=13;fontColor=default;fillColor=#f8cecc;strokeColor=#b85450;arcSize=12;" parent="1" source="BMSPjfVfwommTCz05lxM-133" target="BMSPjfVfwommTCz05lxM-127" edge="1">
          <mxGeometry relative="1" as="geometry">
            <Array as="points">
              <mxPoint x="2809.8" y="1190" />
              <mxPoint x="2809.8" y="1065" />
              <mxPoint x="2559.8" y="1065" />
              <mxPoint x="2559.8" y="940" />
            </Array>
          </mxGeometry>
        </mxCell>
        <mxCell id="BMSPjfVfwommTCz05lxM-174" style="edgeStyle=orthogonalEdgeStyle;rounded=0;orthogonalLoop=1;jettySize=auto;html=1;exitX=0;exitY=1;exitDx=0;exitDy=0;entryX=1;entryY=0.5;entryDx=0;entryDy=0;fontSize=50;fontColor=default;strokeWidth=1;fillColor=#d5e8d4;strokeColor=#82b366;" parent="1" source="BMSPjfVfwommTCz05lxM-133" target="BMSPjfVfwommTCz05lxM-153" edge="1">
          <mxGeometry relative="1" as="geometry">
            <Array as="points">
              <mxPoint x="2860" y="1490" />
              <mxPoint x="2600" y="1490" />
              <mxPoint x="2600" y="1690" />
            </Array>
          </mxGeometry>
        </mxCell>
        <mxCell id="BMSPjfVfwommTCz05lxM-197" style="edgeStyle=orthogonalEdgeStyle;rounded=0;orthogonalLoop=1;jettySize=auto;html=1;exitX=1;exitY=0.5;exitDx=0;exitDy=0;entryX=1;entryY=0.75;entryDx=0;entryDy=0;fontSize=13;fontColor=default;strokeWidth=1;fillColor=#f8cecc;strokeColor=#b85450;" parent="1" source="BMSPjfVfwommTCz05lxM-133" target="BMSPjfVfwommTCz05lxM-28" edge="1">
          <mxGeometry relative="1" as="geometry" />
        </mxCell>
        <mxCell id="BMSPjfVfwommTCz05lxM-133" value="Morgana Hallowy&lt;br&gt;&lt;div style=&quot;text-align: left&quot;&gt;&lt;ul&gt;&lt;li&gt;(K) 3rd Child&lt;/li&gt;&lt;li&gt;(K) Owns Farmland&lt;/li&gt;&lt;li&gt;(K) Narcissistic&lt;br&gt;&lt;/li&gt;&lt;li&gt;(K) Hates arranged marriage w/ Luther Smith&lt;/li&gt;&lt;li&gt;(K) Working w/Jasper to kill&lt;font color=&quot;#ff0000&quot;&gt; her brothers&lt;br&gt;&lt;/font&gt;&lt;/li&gt;&lt;/ul&gt;&lt;/div&gt;" style="rounded=0;whiteSpace=wrap;html=1;labelBackgroundColor=none;labelBorderColor=none;fontSize=13;fontColor=default;arcSize=12;" parent="1" vertex="1">
          <mxGeometry x="2859.8" y="1190" width="120" height="270" as="geometry" />
        </mxCell>
        <mxCell id="BMSPjfVfwommTCz05lxM-151" style="edgeStyle=orthogonalEdgeStyle;rounded=0;orthogonalLoop=1;jettySize=auto;html=1;exitX=1;exitY=0.25;exitDx=0;exitDy=0;entryX=0;entryY=0.25;entryDx=0;entryDy=0;fontSize=13;fontColor=default;fillColor=#d5e8d4;strokeColor=#82b366;arcSize=12;" parent="1" source="BMSPjfVfwommTCz05lxM-149" target="BMSPjfVfwommTCz05lxM-129" edge="1">
          <mxGeometry relative="1" as="geometry" />
        </mxCell>
        <mxCell id="BMSPjfVfwommTCz05lxM-149" value="1st Daughter" style="rounded=0;whiteSpace=wrap;html=1;labelBackgroundColor=none;labelBorderColor=none;fontSize=13;fontColor=default;arcSize=12;" parent="1" vertex="1">
          <mxGeometry x="2007.804827586207" y="840" width="120" height="60" as="geometry" />
        </mxCell>
        <mxCell id="BMSPjfVfwommTCz05lxM-158" style="edgeStyle=orthogonalEdgeStyle;rounded=0;orthogonalLoop=1;jettySize=auto;html=1;exitX=1;exitY=0.25;exitDx=0;exitDy=0;entryX=0;entryY=1;entryDx=0;entryDy=0;fontSize=13;fontColor=default;fillColor=#f8cecc;strokeColor=#b85450;dashed=1;arcSize=12;" parent="1" source="BMSPjfVfwommTCz05lxM-153" target="BMSPjfVfwommTCz05lxM-28" edge="1">
          <mxGeometry relative="1" as="geometry">
            <Array as="points">
              <mxPoint x="2769.8" y="1435" />
            </Array>
          </mxGeometry>
        </mxCell>
        <mxCell id="BMSPjfVfwommTCz05lxM-161" style="edgeStyle=orthogonalEdgeStyle;rounded=0;orthogonalLoop=1;jettySize=auto;html=1;exitX=1;exitY=0.25;exitDx=0;exitDy=0;entryX=0;entryY=0.75;entryDx=0;entryDy=0;dashed=1;fontSize=13;fontColor=default;fillColor=#f8cecc;strokeColor=#b85450;arcSize=12;" parent="1" source="BMSPjfVfwommTCz05lxM-153" target="BMSPjfVfwommTCz05lxM-129" edge="1">
          <mxGeometry relative="1" as="geometry">
            <Array as="points">
              <mxPoint x="2769.8" y="1435" />
              <mxPoint x="2769.8" y="895" />
            </Array>
          </mxGeometry>
        </mxCell>
        <mxCell id="BMSPjfVfwommTCz05lxM-162" style="edgeStyle=orthogonalEdgeStyle;rounded=0;orthogonalLoop=1;jettySize=auto;html=1;exitX=1;exitY=0.25;exitDx=0;exitDy=0;entryX=0;entryY=0.25;entryDx=0;entryDy=0;dashed=1;fontSize=13;fontColor=default;fillColor=#f8cecc;strokeColor=#b85450;arcSize=12;" parent="1" source="BMSPjfVfwommTCz05lxM-153" target="BMSPjfVfwommTCz05lxM-130" edge="1">
          <mxGeometry relative="1" as="geometry">
            <Array as="points">
              <mxPoint x="2769.8" y="1435" />
              <mxPoint x="2769.8" y="945" />
            </Array>
          </mxGeometry>
        </mxCell>
        <mxCell id="BMSPjfVfwommTCz05lxM-163" style="edgeStyle=orthogonalEdgeStyle;rounded=0;orthogonalLoop=1;jettySize=auto;html=1;exitX=1;exitY=0.25;exitDx=0;exitDy=0;entryX=0;entryY=0.25;entryDx=0;entryDy=0;dashed=1;fontSize=13;fontColor=default;fillColor=#f8cecc;strokeColor=#b85450;arcSize=12;" parent="1" source="BMSPjfVfwommTCz05lxM-153" target="BMSPjfVfwommTCz05lxM-131" edge="1">
          <mxGeometry relative="1" as="geometry">
            <Array as="points">
              <mxPoint x="2769.8" y="1435" />
              <mxPoint x="2769.8" y="1025" />
            </Array>
          </mxGeometry>
        </mxCell>
        <mxCell id="BMSPjfVfwommTCz05lxM-164" style="edgeStyle=orthogonalEdgeStyle;rounded=0;orthogonalLoop=1;jettySize=auto;html=1;exitX=1;exitY=0.25;exitDx=0;exitDy=0;entryX=0;entryY=0.25;entryDx=0;entryDy=0;dashed=1;fontSize=13;fontColor=default;fillColor=#f8cecc;strokeColor=#b85450;arcSize=12;" parent="1" source="BMSPjfVfwommTCz05lxM-153" target="BMSPjfVfwommTCz05lxM-132" edge="1">
          <mxGeometry relative="1" as="geometry">
            <Array as="points">
              <mxPoint x="2769.8" y="1435" />
              <mxPoint x="2769.8" y="1105" />
            </Array>
          </mxGeometry>
        </mxCell>
        <mxCell id="BMSPjfVfwommTCz05lxM-173" style="edgeStyle=orthogonalEdgeStyle;rounded=0;orthogonalLoop=1;jettySize=auto;html=1;exitX=1;exitY=0.5;exitDx=0;exitDy=0;entryX=0;entryY=1;entryDx=0;entryDy=0;fontSize=50;fontColor=default;strokeWidth=1;fillColor=#d5e8d4;strokeColor=#82b366;" parent="1" source="BMSPjfVfwommTCz05lxM-153" target="BMSPjfVfwommTCz05lxM-133" edge="1">
          <mxGeometry relative="1" as="geometry">
            <Array as="points">
              <mxPoint x="2600" y="1690" />
              <mxPoint x="2600" y="1490" />
              <mxPoint x="2860" y="1490" />
            </Array>
          </mxGeometry>
        </mxCell>
        <mxCell id="BMSPjfVfwommTCz05lxM-175" style="edgeStyle=orthogonalEdgeStyle;rounded=0;orthogonalLoop=1;jettySize=auto;html=1;exitX=1;exitY=0.75;exitDx=0;exitDy=0;entryX=0;entryY=0.75;entryDx=0;entryDy=0;fontSize=50;fontColor=default;strokeWidth=1;fillColor=#d5e8d4;strokeColor=#82b366;" parent="1" source="BMSPjfVfwommTCz05lxM-153" target="BMSPjfVfwommTCz05lxM-169" edge="1">
          <mxGeometry relative="1" as="geometry" />
        </mxCell>
        <mxCell id="BMSPjfVfwommTCz05lxM-153" value="Jasper&lt;br&gt;&lt;div&gt;&lt;ul&gt;&lt;li style=&quot;text-align: left&quot;&gt;(K) Scroded by Lord Hallowy&lt;/li&gt;&lt;li style=&quot;text-align: left&quot;&gt;(K) Family banished to the island&lt;/li&gt;&lt;li style=&quot;text-align: left&quot;&gt;(K) Wants to revenge family&lt;/li&gt;&lt;li style=&quot;text-align: left&quot;&gt;(K) Uses a false identity of a elvish Duke&lt;/li&gt;&lt;li style=&quot;text-align: left&quot;&gt;(K) Art thief&lt;/li&gt;&lt;li style=&quot;text-align: left&quot;&gt;(K) Ambushed Morgana and fakes to save her to gain trust&lt;/li&gt;&lt;li style=&quot;text-align: left&quot;&gt;(K) Working w/ Morgana&lt;/li&gt;&lt;li style=&quot;text-align: left&quot;&gt;(K) Wants to be a bard&lt;/li&gt;&lt;/ul&gt;&lt;/div&gt;" style="rounded=0;whiteSpace=wrap;html=1;labelBackgroundColor=none;labelBorderColor=none;fontSize=13;fontColor=default;arcSize=12;" parent="1" vertex="1">
          <mxGeometry x="2409.8" y="1480" width="120" height="420" as="geometry" />
        </mxCell>
        <mxCell id="BMSPjfVfwommTCz05lxM-176" style="edgeStyle=orthogonalEdgeStyle;rounded=0;orthogonalLoop=1;jettySize=auto;html=1;exitX=0;exitY=0.75;exitDx=0;exitDy=0;entryX=1;entryY=0.75;entryDx=0;entryDy=0;fontSize=50;fontColor=default;strokeWidth=1;fillColor=#d5e8d4;strokeColor=#82b366;" parent="1" source="BMSPjfVfwommTCz05lxM-169" target="BMSPjfVfwommTCz05lxM-153" edge="1">
          <mxGeometry relative="1" as="geometry" />
        </mxCell>
        <mxCell id="BMSPjfVfwommTCz05lxM-169" value="Ellywick&lt;br&gt;&lt;ul&gt;&lt;li style=&quot;text-align: left&quot;&gt;(K) Oldest of 7 sidlings&lt;/li&gt;&lt;li style=&quot;text-align: left&quot;&gt;(K) Family own bar in a farming town&lt;/li&gt;&lt;li style=&quot;text-align: left&quot;&gt;(K) Working and tinkering since a young age&lt;/li&gt;&lt;li style=&quot;text-align: left&quot;&gt;(K) Family was set up by a thief and she was thrown into a well&lt;/li&gt;&lt;li style=&quot;text-align: left&quot;&gt;(K) Moon aligned with the hole of the well&lt;/li&gt;&lt;li style=&quot;text-align: left&quot;&gt;(K) Suddenly found herself out of the well and now follows Sehanine&lt;/li&gt;&lt;li style=&quot;text-align: left&quot;&gt;(K) Never been to the city&lt;/li&gt;&lt;li style=&quot;text-align: left&quot;&gt;(K) Want to build a telescope to see the stars&lt;/li&gt;&lt;/ul&gt;" style="rounded=0;whiteSpace=wrap;html=1;labelBackgroundColor=none;labelBorderColor=none;fontSize=13;fontColor=default;arcSize=12;" parent="1" vertex="1">
          <mxGeometry x="2920" y="1480" width="119.8" height="550" as="geometry" />
        </mxCell>
        <mxCell id="BMSPjfVfwommTCz05lxM-170" value="&lt;font style=&quot;font-size: 50px&quot;&gt;Alossis&lt;/font&gt;" style="rounded=0;whiteSpace=wrap;html=1;labelBackgroundColor=none;labelBorderColor=none;fontSize=13;fontColor=default;" parent="1" vertex="1">
          <mxGeometry x="2150" y="50" width="580" height="40" as="geometry" />
        </mxCell>
        <mxCell id="BMSPjfVfwommTCz05lxM-184" value="The Empire" style="rounded=0;whiteSpace=wrap;html=1;labelBackgroundColor=none;labelBorderColor=none;fontSize=26;fontColor=default;strokeWidth=1;fillColor=default;" parent="1" vertex="1">
          <mxGeometry x="2272.4" y="290" width="335.2" height="60" as="geometry" />
        </mxCell>
        <mxCell id="BMSPjfVfwommTCz05lxM-194" style="edgeStyle=orthogonalEdgeStyle;rounded=0;orthogonalLoop=1;jettySize=auto;html=1;exitX=1;exitY=0;exitDx=0;exitDy=0;entryX=0;entryY=1;entryDx=0;entryDy=0;dashed=1;fontSize=13;fontColor=default;strokeWidth=1;fillColor=#f8cecc;strokeColor=#b85450;" parent="1" source="BMSPjfVfwommTCz05lxM-191" target="BMSPjfVfwommTCz05lxM-27" edge="1">
          <mxGeometry relative="1" as="geometry" />
        </mxCell>
        <mxCell id="BMSPjfVfwommTCz05lxM-191" value="Criella&lt;br&gt;&lt;div style=&quot;text-align: left&quot;&gt;&lt;ul&gt;&lt;li&gt;&lt;span&gt;(K) Orphan&lt;/span&gt;&lt;/li&gt;&lt;li&gt;&lt;span&gt;(K) Hated by village for being a Tiefling&lt;/span&gt;&lt;/li&gt;&lt;li&gt;&lt;span&gt;(UK) Cursed by being an offspring of Lord Strahd&lt;br&gt;&lt;/span&gt;&lt;/li&gt;&lt;li&gt;&lt;span&gt;(K) Forced into army by Lord Smith&amp;nbsp;&lt;/span&gt;&lt;/li&gt;&lt;li&gt;&lt;span&gt;(K) Ordered to destroy village with her powers but defend&amp;nbsp;it instead&lt;/span&gt;&lt;/li&gt;&lt;/ul&gt;&lt;/div&gt;" style="rounded=0;whiteSpace=wrap;html=1;labelBackgroundColor=none;labelBorderColor=none;fontSize=13;fontColor=default;strokeWidth=1;fillColor=default;" parent="1" vertex="1">
          <mxGeometry x="2198.8" y="1430" width="125" height="390" as="geometry" />
        </mxCell>
        <mxCell id="ByryqMUNPRfWIRXirwUa-3" style="edgeStyle=orthogonalEdgeStyle;rounded=0;orthogonalLoop=1;jettySize=auto;html=1;exitX=1;exitY=0.25;exitDx=0;exitDy=0;entryX=0;entryY=0.5;entryDx=0;entryDy=0;fillColor=#d5e8d4;strokeColor=#82b366;" parent="1" source="BMSPjfVfwommTCz05lxM-198" target="ByryqMUNPRfWIRXirwUa-1" edge="1">
          <mxGeometry relative="1" as="geometry">
            <Array as="points">
              <mxPoint x="3330" y="1680" />
              <mxPoint x="3455" y="1680" />
              <mxPoint x="3455" y="1640" />
            </Array>
          </mxGeometry>
        </mxCell>
        <mxCell id="BMSPjfVfwommTCz05lxM-198" value="Travok&lt;br&gt;&lt;ul&gt;&lt;li style=&quot;text-align: left&quot;&gt;(K) Born in Lightning Storm&lt;/li&gt;&lt;li style=&quot;text-align: left&quot;&gt;(K) Mom killed giving birth&lt;/li&gt;&lt;li style=&quot;text-align: left&quot;&gt;(K) Dad died defending him&lt;/li&gt;&lt;li style=&quot;text-align: left&quot;&gt;(K) Kord killed them both&lt;/li&gt;&lt;li style=&quot;text-align: left&quot;&gt;(K) Wants to kill Kord&lt;/li&gt;&lt;li style=&quot;text-align: left&quot;&gt;(K) Found love at 54, wed, and had two kids.&lt;/li&gt;&lt;li style=&quot;text-align: left&quot;&gt;(K)&amp;nbsp; Kord killed the wife and kids&lt;/li&gt;&lt;li style=&quot;text-align: left&quot;&gt;(K) Sehanine taught him the ways of the Circle of the Moon&lt;/li&gt;&lt;li style=&quot;text-align: left&quot;&gt;(K) Lives in Hauflin Forest&lt;/li&gt;&lt;li style=&quot;text-align: left&quot;&gt;(K) Raised by Bears&lt;/li&gt;&lt;li style=&quot;text-align: left&quot;&gt;Is with &lt;br&gt;&lt;/li&gt;&lt;/ul&gt;" style="rounded=0;whiteSpace=wrap;html=1;labelBackgroundColor=none;labelBorderColor=none;fontSize=13;fontColor=default;strokeWidth=1;fillColor=default;" parent="1" vertex="1">
          <mxGeometry x="3210" y="1590" width="120" height="530" as="geometry" />
        </mxCell>
        <mxCell id="BMSPjfVfwommTCz05lxM-208" value="Leo&lt;br&gt;&lt;a href=&quot;https://app.diagrams.net/#Hcdwilliams32%2FAlossis%2Fmain%2FLeo.drawio&quot;&gt;Link&lt;/a&gt;" style="rounded=0;whiteSpace=wrap;html=1;labelBackgroundColor=none;labelBorderColor=none;fontSize=13;fontColor=default;strokeWidth=1;fillColor=default;" parent="1" vertex="1">
          <mxGeometry x="1830" y="1490" width="120" height="60" as="geometry" />
        </mxCell>
        <mxCell id="BMSPjfVfwommTCz05lxM-216" style="edgeStyle=orthogonalEdgeStyle;rounded=0;orthogonalLoop=1;jettySize=auto;html=1;exitX=0.5;exitY=1;exitDx=0;exitDy=0;entryX=0.5;entryY=0;entryDx=0;entryDy=0;fontSize=13;fontColor=default;strokeWidth=1;" parent="1" source="BMSPjfVfwommTCz05lxM-213" target="BMSPjfVfwommTCz05lxM-215" edge="1">
          <mxGeometry relative="1" as="geometry" />
        </mxCell>
        <mxCell id="BMSPjfVfwommTCz05lxM-213" value="Lady in White" style="rounded=0;whiteSpace=wrap;html=1;labelBackgroundColor=none;labelBorderColor=none;fontSize=13;fontColor=default;strokeWidth=1;fillColor=default;" parent="1" vertex="1">
          <mxGeometry x="3519.8" y="910" width="120" height="60" as="geometry" />
        </mxCell>
        <mxCell id="BMSPjfVfwommTCz05lxM-215" value="Gold Castle" style="rounded=0;whiteSpace=wrap;html=1;labelBackgroundColor=none;labelBorderColor=none;fontSize=13;fontColor=default;strokeWidth=1;fillColor=default;" parent="1" vertex="1">
          <mxGeometry x="3519.8" y="1000" width="120" height="60" as="geometry" />
        </mxCell>
        <mxCell id="Fj1rsP363tf5vaqWqIAK-2" value="Leo&#39;s Mom&lt;br&gt;&lt;ul&gt;&lt;li style=&quot;text-align: left&quot;&gt;(UK) Was &quot;Saved&quot; by The Celler after running away from her burning village.&amp;nbsp;&lt;/li&gt;&lt;li style=&quot;text-align: left&quot;&gt;(UK) Was able to make a deal with Rum to work with the books for her daughters freedom&lt;/li&gt;&lt;/ul&gt;" style="rounded=0;whiteSpace=wrap;html=1;fontSize=13;" parent="1" vertex="1">
          <mxGeometry x="1150" y="840" width="120" height="280" as="geometry" />
        </mxCell>
        <mxCell id="Fj1rsP363tf5vaqWqIAK-8" value="Leo&#39;s Sister&lt;br&gt;&lt;ul&gt;&lt;li style=&quot;text-align: left&quot;&gt;(UK) Suppressed her memory of fleeing her village and being separated from here family&lt;/li&gt;&lt;li style=&quot;text-align: left&quot;&gt;(UK) Is a member of the church to escape the streets&lt;/li&gt;&lt;li style=&quot;text-align: left&quot;&gt;(UK) Seeing Leo may trigger all these memories to come back&amp;nbsp;&lt;/li&gt;&lt;/ul&gt;" style="rounded=0;whiteSpace=wrap;html=1;fontSize=13;" parent="1" vertex="1">
          <mxGeometry x="3359.8" y="960" width="120" height="360" as="geometry" />
        </mxCell>
        <mxCell id="ByryqMUNPRfWIRXirwUa-2" style="edgeStyle=orthogonalEdgeStyle;rounded=0;orthogonalLoop=1;jettySize=auto;html=1;exitX=0;exitY=0.5;exitDx=0;exitDy=0;entryX=0.986;entryY=0.175;entryDx=0;entryDy=0;entryPerimeter=0;fillColor=#d5e8d4;strokeColor=#82b366;" parent="1" source="ByryqMUNPRfWIRXirwUa-1" target="BMSPjfVfwommTCz05lxM-198" edge="1">
          <mxGeometry relative="1" as="geometry" />
        </mxCell>
        <mxCell id="ByryqMUNPRfWIRXirwUa-1" value="&lt;div&gt;IV&lt;/div&gt;&lt;div&gt;&lt;ul&gt;&lt;li&gt;Fucks her panther&lt;/li&gt;&lt;li&gt;Now with travok&lt;br&gt;&lt;/li&gt;&lt;/ul&gt;&lt;/div&gt;" style="rounded=0;whiteSpace=wrap;html=1;" parent="1" vertex="1">
          <mxGeometry x="3580" y="1610" width="120" height="60" as="geometry" />
        </mxCell>
      </root>
    </mxGraphModel>
  </diagram>
</mxfile>
